<svg id="svg" version="1.1" xmlns="http://www.w3.org/2000/svg" xmlns:xlink="http://www.w3.org/1999/xlink" width="400" height="148.71794871794873" viewBox="0, 0, 400,148.71794871794873"><g id="svgg"><path id="path0" d="M37.734 3.250 C 38.227 3.707,38.333 3.751,38.333 3.500 C 38.333 3.408,38.221 3.333,38.083 3.333 C 37.946 3.333,37.833 3.254,37.833 3.157 C 37.833 3.060,37.920 3.034,38.026 3.099 C 38.145 3.173,38.173 3.145,38.099 3.026 C 38.034 2.920,37.824 2.833,37.632 2.833 C 37.307 2.833,37.313 2.860,37.734 3.250 M41.833 4.893 C 41.833 4.926,42.096 5.232,42.417 5.572 C 42.747 5.922,43.000 6.087,43.000 5.951 C 43.000 5.693,42.213 4.833,41.977 4.833 C 41.898 4.833,41.833 4.860,41.833 4.893 M28.565 6.237 C 28.299 6.931,29.381 7.852,29.879 7.354 C 30.093 7.140,30.091 7.139,29.417 7.107 C 28.992 7.087,28.916 7.016,28.911 6.633 C 28.904 6.076,28.712 5.855,28.565 6.237 M33.500 8.641 C 33.500 8.802,34.053 9.333,34.221 9.333 C 34.283 9.333,34.333 9.254,34.333 9.157 C 34.333 9.060,34.277 9.014,34.208 9.056 C 34.045 9.155,33.656 8.733,33.788 8.601 C 33.843 8.545,33.801 8.500,33.694 8.500 C 33.587 8.500,33.500 8.563,33.500 8.641 M25.667 9.490 C 25.667 9.577,25.524 9.620,25.350 9.587 C 25.130 9.544,25.046 9.611,25.075 9.804 C 25.097 9.958,25.037 10.211,24.939 10.367 C 24.709 10.738,24.889 10.907,25.277 10.686 C 25.891 10.336,25.976 10.238,26.090 9.748 C 26.202 9.268,26.196 9.262,25.936 9.583 C 25.716 9.855,25.685 9.862,25.767 9.625 C 25.823 9.465,25.823 9.333,25.768 9.333 C 25.712 9.333,25.667 9.404,25.667 9.490 M18.814 9.792 C 18.803 9.860,18.802 9.970,18.812 10.036 C 18.821 10.101,18.718 10.112,18.581 10.060 C 18.424 9.999,18.333 10.064,18.333 10.238 C 18.333 10.460,18.396 10.478,18.667 10.333 C 18.850 10.235,19.000 10.204,19.000 10.265 C 19.000 10.325,19.112 10.281,19.248 10.168 C 19.385 10.055,19.455 9.896,19.405 9.814 C 19.294 9.635,18.841 9.617,18.814 9.792 M42.654 11.476 C 42.836 11.816,43.667 12.419,43.667 12.212 C 43.667 12.061,42.747 11.167,42.592 11.167 C 42.535 11.167,42.563 11.306,42.654 11.476 M59.167 11.510 C 59.167 11.607,59.247 11.637,59.344 11.576 C 59.442 11.516,59.619 11.599,59.738 11.762 C 60.002 12.123,60.500 12.221,60.500 11.912 C 60.500 11.576,60.151 11.424,59.984 11.687 C 59.869 11.869,59.838 11.856,59.836 11.625 C 59.834 11.445,59.705 11.333,59.500 11.333 C 59.317 11.333,59.167 11.413,59.167 11.510 M24.349 12.231 C 24.231 12.374,24.214 12.510,24.308 12.568 C 24.394 12.621,24.512 12.542,24.570 12.392 C 24.711 12.023,24.593 11.937,24.349 12.231 M47.167 13.967 C 47.167 14.139,47.528 14.500,47.700 14.500 C 47.773 14.500,47.833 14.425,47.833 14.333 C 47.833 14.242,47.740 14.185,47.625 14.208 C 47.510 14.231,47.435 14.156,47.458 14.042 C 47.481 13.927,47.425 13.833,47.333 13.833 C 47.242 13.833,47.167 13.893,47.167 13.967 M50.708 15.542 C 50.802 15.827,51.619 16.270,51.771 16.118 C 51.839 16.050,51.795 15.902,51.673 15.789 C 51.497 15.626,51.475 15.626,51.569 15.792 C 51.633 15.906,51.616 16.000,51.529 16.000 C 51.443 16.000,51.333 15.850,51.285 15.667 C 51.237 15.483,51.072 15.333,50.918 15.333 C 50.765 15.333,50.670 15.427,50.708 15.542 M13.508 16.793 C 13.269 16.987,13.184 17.185,13.258 17.376 C 13.407 17.764,13.608 17.743,13.716 17.329 C 13.765 17.143,13.867 17.001,13.944 17.015 C 14.296 17.077,14.500 16.979,14.500 16.750 C 14.500 16.411,13.951 16.434,13.508 16.793 M19.023 18.959 C 18.762 19.253,18.697 19.427,18.831 19.471 C 19.110 19.565,19.544 19.096,19.474 18.777 C 19.429 18.569,19.333 18.608,19.023 18.959 M11.525 20.101 C 11.401 20.241,11.333 20.388,11.373 20.429 C 11.413 20.469,11.583 20.352,11.749 20.168 C 11.915 19.984,11.984 19.836,11.901 19.840 C 11.818 19.843,11.649 19.961,11.525 20.101 M83.730 23.533 C 83.663 23.641,83.691 23.672,83.796 23.606 C 83.896 23.545,84.024 23.571,84.082 23.664 C 84.139 23.757,84.088 23.836,83.968 23.838 C 83.835 23.841,83.865 23.911,84.045 24.015 C 84.208 24.110,84.297 24.258,84.244 24.344 C 84.190 24.430,84.226 24.500,84.323 24.500 C 84.421 24.500,84.500 24.387,84.500 24.250 C 84.500 24.113,84.427 24.000,84.339 24.000 C 84.250 24.000,84.217 23.897,84.265 23.772 C 84.372 23.491,83.889 23.275,83.730 23.533 M83.725 32.015 C 83.990 32.393,84.667 32.919,84.667 32.747 C 84.667 32.609,83.724 31.667,83.587 31.667 C 83.529 31.667,83.591 31.824,83.725 32.015 M12.345 34.468 C 12.338 34.588,12.240 34.639,12.125 34.581 C 12.010 34.523,12.048 34.583,12.208 34.714 C 12.567 35.008,12.573 35.103,12.241 35.230 C 12.074 35.294,12.024 35.262,12.100 35.139 C 12.179 35.012,12.140 34.993,11.984 35.083 C 11.316 35.467,10.943 36.000,11.343 36.000 C 11.440 36.000,11.479 35.933,11.428 35.852 C 11.378 35.771,11.442 35.617,11.570 35.511 C 11.733 35.376,11.837 35.371,11.913 35.495 C 11.974 35.592,12.112 35.619,12.220 35.554 C 12.332 35.487,12.318 35.557,12.188 35.718 C 11.948 36.014,11.805 36.086,11.875 35.875 C 11.898 35.806,11.842 35.731,11.750 35.708 C 11.658 35.685,11.574 35.742,11.563 35.833 C 11.551 35.925,11.532 36.079,11.521 36.177 C 11.509 36.274,11.425 36.307,11.333 36.250 C 11.242 36.193,11.167 36.226,11.167 36.323 C 11.167 36.618,11.748 36.521,12.133 36.162 C 12.592 35.735,12.759 35.085,12.532 34.614 C 12.435 34.414,12.351 34.348,12.345 34.468 M106.299 37.192 C 106.468 37.409,106.470 37.482,106.307 37.537 C 106.170 37.582,106.196 37.642,106.383 37.714 C 106.763 37.860,106.757 37.445,106.375 37.145 C 106.114 36.941,106.106 36.946,106.299 37.192 M110.333 40.917 C 110.333 41.054,110.413 41.167,110.510 41.167 C 110.607 41.167,110.637 41.086,110.576 40.988 C 110.515 40.889,110.622 40.906,110.813 41.026 C 111.176 41.253,111.403 41.652,111.254 41.802 C 111.206 41.850,111.166 41.783,111.164 41.653 C 111.162 41.457,111.131 41.460,110.982 41.667 C 110.823 41.887,110.811 41.886,110.882 41.661 C 110.933 41.497,110.856 41.405,110.668 41.405 C 110.059 41.405,110.435 41.905,111.057 41.923 C 111.787 41.943,111.852 41.670,111.258 41.076 C 110.799 40.617,110.333 40.537,110.333 40.917 M103.730 46.230 C 103.778 46.560,103.940 46.722,104.270 46.770 C 104.413 46.791,104.480 46.758,104.418 46.696 C 104.356 46.634,104.218 46.583,104.111 46.583 C 104.004 46.583,103.917 46.496,103.917 46.389 C 103.917 46.282,103.866 46.144,103.804 46.082 C 103.742 46.020,103.709 46.087,103.730 46.230 M102.583 49.032 C 102.066 49.326,101.802 49.833,102.167 49.833 C 102.258 49.833,102.333 49.721,102.333 49.583 C 102.333 49.446,102.446 49.333,102.583 49.333 C 102.721 49.333,102.833 49.258,102.833 49.167 C 102.833 49.075,102.913 49.000,103.010 49.000 C 103.107 49.000,103.141 49.074,103.085 49.165 C 103.026 49.259,103.093 49.287,103.241 49.230 C 103.384 49.176,103.500 49.064,103.500 48.982 C 103.500 48.776,102.985 48.805,102.583 49.032 M11.238 49.731 C 11.238 50.248,11.278 50.292,11.712 50.262 C 12.227 50.227,12.456 50.405,12.144 50.598 C 12.014 50.678,11.993 50.645,12.083 50.500 C 12.173 50.355,12.153 50.322,12.023 50.402 C 11.741 50.577,11.960 50.838,12.284 50.714 C 12.500 50.631,12.532 50.677,12.436 50.929 C 12.341 51.179,12.358 51.206,12.514 51.051 C 12.671 50.896,12.667 50.730,12.497 50.301 C 12.015 49.084,11.238 48.732,11.238 49.731 M11.887 49.734 C 11.980 49.975,11.874 50.167,11.649 50.167 C 11.579 50.167,11.532 50.017,11.546 49.833 C 11.575 49.447,11.757 49.394,11.887 49.734 M65.336 50.957 C 64.980 51.096,64.727 51.381,64.598 51.786 C 64.488 52.135,64.685 52.211,65.083 51.975 C 65.175 51.921,65.385 51.898,65.551 51.925 C 65.756 51.958,65.806 51.911,65.707 51.778 C 65.497 51.494,65.548 51.177,65.833 50.996 C 66.129 50.810,65.782 50.782,65.336 50.957 M93.529 52.443 C 93.422 52.558,93.312 52.787,93.287 52.951 C 93.261 53.116,93.182 53.344,93.111 53.458 C 93.009 53.620,93.083 53.627,93.449 53.488 C 94.064 53.254,94.500 52.848,94.500 52.508 C 94.500 52.177,93.820 52.132,93.529 52.443 M94.167 52.654 C 94.167 52.815,93.476 53.198,93.373 53.095 C 93.320 53.043,93.365 53.000,93.472 53.000 C 93.579 53.000,93.658 52.944,93.647 52.875 C 93.636 52.806,93.636 52.706,93.647 52.653 C 93.673 52.525,94.167 52.526,94.167 52.654 M127.401 52.692 C 127.336 52.798,127.405 52.974,127.555 53.083 C 127.705 53.193,127.785 53.326,127.732 53.379 C 127.679 53.432,127.753 53.458,127.897 53.437 C 128.040 53.416,128.215 53.340,128.287 53.269 C 128.358 53.197,128.330 53.164,128.225 53.194 C 128.049 53.245,128.000 53.180,128.000 52.896 C 128.000 52.839,128.108 52.882,128.240 52.992 C 128.372 53.101,128.434 53.310,128.378 53.456 C 128.305 53.646,128.339 53.683,128.497 53.585 C 128.641 53.496,128.678 53.513,128.604 53.634 C 128.541 53.735,128.360 53.777,128.203 53.727 C 127.960 53.649,127.954 53.662,128.167 53.815 C 128.635 54.152,128.879 54.038,128.755 53.542 C 128.542 52.687,127.722 52.173,127.401 52.692 M56.698 55.250 L 56.336 55.667 56.834 55.667 C 57.255 55.667,57.333 55.602,57.333 55.250 C 57.333 55.021,57.272 54.833,57.197 54.833 C 57.122 54.833,56.897 55.021,56.698 55.250 M7.833 59.038 C 7.833 59.442,8.246 60.172,8.435 60.100 C 8.560 60.051,8.645 60.101,8.623 60.210 C 8.601 60.319,8.752 60.434,8.958 60.466 C 9.212 60.505,9.333 60.439,9.333 60.262 C 9.333 59.949,9.066 59.914,8.935 60.208 C 8.885 60.323,8.860 60.267,8.880 60.083 C 8.907 59.835,8.823 59.755,8.548 59.769 C 8.224 59.787,8.201 59.746,8.362 59.436 C 8.463 59.242,8.486 59.139,8.413 59.207 C 8.340 59.275,8.180 59.247,8.057 59.145 C 7.934 59.043,7.833 58.995,7.833 59.038 M61.042 59.261 C 60.927 59.385,60.812 59.620,60.787 59.785 C 60.761 59.949,60.682 60.177,60.611 60.291 C 60.435 60.573,61.301 60.248,61.708 59.879 C 62.065 59.556,62.092 59.000,61.750 59.000 C 61.612 59.000,61.500 59.079,61.500 59.177 C 61.500 59.274,61.582 59.302,61.683 59.240 C 61.816 59.158,61.817 59.219,61.688 59.460 C 61.504 59.804,61.020 60.075,60.865 59.921 C 60.817 59.873,60.870 59.833,60.982 59.833 C 61.094 59.833,61.143 59.764,61.090 59.678 C 61.038 59.593,61.082 59.469,61.190 59.402 C 61.312 59.327,61.340 59.354,61.266 59.474 C 61.201 59.580,61.226 59.667,61.323 59.667 C 61.528 59.667,61.547 59.497,61.372 59.227 C 61.283 59.089,61.193 59.098,61.042 59.261 M91.858 59.434 C 91.734 59.574,91.666 59.722,91.706 59.762 C 91.747 59.802,91.916 59.685,92.082 59.501 C 92.249 59.317,92.317 59.170,92.234 59.173 C 92.151 59.176,91.982 59.294,91.858 59.434 M112.000 61.083 C 112.000 61.313,112.034 61.500,112.075 61.500 C 112.116 61.500,112.352 61.313,112.599 61.083 L 113.049 60.667 112.524 60.667 C 112.076 60.667,112.000 60.727,112.000 61.083 M88.840 61.531 C 88.321 62.088,88.392 62.458,89.000 62.369 C 89.275 62.329,89.500 62.229,89.500 62.148 C 89.500 62.066,89.444 62.009,89.375 62.020 C 88.783 62.113,88.748 61.813,89.315 61.510 C 89.531 61.394,89.611 61.412,89.611 61.576 C 89.611 61.700,89.511 61.763,89.389 61.716 C 89.267 61.669,89.167 61.727,89.167 61.843 C 89.167 61.960,89.216 62.006,89.276 61.946 C 89.337 61.886,89.469 61.905,89.570 61.989 C 89.697 62.094,89.761 61.990,89.774 61.654 C 89.799 61.049,89.345 60.989,88.840 61.531 M87.742 61.487 C 87.865 61.686,87.353 62.198,87.153 62.075 C 87.069 62.023,87.000 62.060,87.000 62.157 C 87.000 62.435,87.303 62.364,87.667 62.000 C 88.030 61.636,88.102 61.333,87.823 61.333 C 87.726 61.333,87.690 61.402,87.742 61.487 M67.667 61.641 C 67.667 61.802,68.220 62.333,68.388 62.333 C 68.450 62.333,68.500 62.254,68.500 62.157 C 68.500 62.060,68.444 62.014,68.375 62.056 C 68.212 62.155,67.822 61.733,67.954 61.601 C 68.010 61.545,67.968 61.500,67.861 61.500 C 67.754 61.500,67.667 61.563,67.667 61.641 M85.707 62.839 C 85.220 63.035,84.866 63.766,85.131 64.031 C 85.395 64.295,85.833 63.906,85.833 63.406 C 85.833 63.194,85.904 62.976,85.991 62.922 C 86.079 62.868,86.119 62.992,86.081 63.204 C 86.015 63.571,86.020 63.573,86.256 63.260 C 86.696 62.675,86.496 62.522,85.707 62.839 M139.333 64.788 C 139.333 64.939,140.253 65.833,140.408 65.833 C 140.465 65.833,140.437 65.694,140.346 65.524 C 140.164 65.184,139.333 64.581,139.333 64.788 M141.056 66.746 C 141.114 67.454,141.206 67.555,141.838 67.603 C 142.486 67.652,142.513 67.151,141.892 66.575 C 141.261 65.991,140.998 66.044,141.056 66.746 M141.846 66.944 C 142.068 67.187,142.156 67.333,142.042 67.267 C 141.927 67.201,141.833 67.220,141.833 67.309 C 141.833 67.499,141.401 67.462,141.213 67.256 C 141.142 67.177,141.177 67.167,141.292 67.233 C 141.406 67.299,141.500 67.274,141.500 67.177 C 141.500 67.079,141.406 66.994,141.292 66.987 C 141.144 66.977,141.149 66.947,141.311 66.883 C 141.502 66.807,141.502 66.771,141.311 66.649 C 141.186 66.570,141.164 66.504,141.263 66.503 C 141.361 66.501,141.624 66.700,141.846 66.944 M11.571 67.723 C 11.431 68.087,11.788 68.658,12.271 68.841 C 13.041 69.134,13.198 68.993,12.756 68.407 C 12.520 68.094,12.515 68.095,12.581 68.463 C 12.623 68.697,12.583 68.801,12.476 68.735 C 12.380 68.676,12.336 68.448,12.378 68.229 C 12.437 67.923,12.406 67.871,12.245 68.004 C 12.090 68.133,12.041 68.105,12.059 67.899 C 12.090 67.537,11.696 67.395,11.571 67.723 M131.732 69.726 C 131.742 69.921,131.670 70.082,131.571 70.082 C 131.303 70.084,130.775 70.665,130.920 70.800 C 130.989 70.864,131.076 70.831,131.114 70.726 C 131.152 70.621,131.323 70.572,131.494 70.617 C 131.833 70.705,132.417 70.000,132.298 69.645 C 132.176 69.279,131.712 69.345,131.732 69.726 M13.000 71.333 C 13.000 71.517,13.067 71.667,13.148 71.667 C 13.230 71.667,13.286 71.790,13.273 71.940 C 13.260 72.091,13.344 72.247,13.458 72.288 C 13.573 72.328,13.667 72.280,13.667 72.181 C 13.667 72.081,13.573 71.999,13.458 71.997 C 13.319 71.996,13.333 71.941,13.500 71.833 C 13.682 71.716,13.690 71.671,13.532 71.669 C 13.410 71.668,13.366 71.582,13.433 71.474 C 13.512 71.346,13.478 71.327,13.331 71.418 C 13.170 71.517,13.139 71.479,13.216 71.277 C 13.275 71.125,13.250 71.000,13.161 71.000 C 13.073 71.000,13.000 71.150,13.000 71.333 M20.594 71.351 C 20.647 71.436,20.755 71.465,20.835 71.416 C 20.914 71.367,21.057 71.459,21.151 71.621 C 21.246 71.784,21.325 71.827,21.328 71.718 C 21.334 71.505,21.048 71.279,20.708 71.228 C 20.593 71.210,20.541 71.266,20.594 71.351 M13.833 72.230 C 13.833 72.396,13.972 72.500,14.194 72.500 C 14.393 72.500,14.524 72.479,14.486 72.453 C 14.448 72.427,14.285 72.305,14.125 72.182 C 13.875 71.991,13.833 71.998,13.833 72.230 M143.828 73.015 C 143.694 73.206,143.604 73.437,143.629 73.527 C 143.654 73.617,143.598 73.644,143.504 73.586 C 143.410 73.528,143.328 73.616,143.322 73.782 C 143.311 74.058,143.299 74.056,143.184 73.762 C 143.077 73.489,143.043 73.480,142.957 73.704 C 142.753 74.237,143.445 74.354,143.891 73.862 C 144.194 73.527,144.262 73.255,144.002 73.415 C 143.907 73.474,143.879 73.407,143.936 73.259 C 143.991 73.116,144.103 73.000,144.184 73.000 C 144.266 73.000,144.333 72.925,144.333 72.833 C 144.333 72.557,144.089 72.645,143.828 73.015 M68.774 73.917 L 68.297 74.417 68.747 74.471 C 69.311 74.539,69.371 74.476,69.304 73.890 L 69.250 73.417 68.774 73.917 M142.234 74.526 C 142.160 74.645,142.188 74.673,142.308 74.599 C 142.543 74.454,142.547 74.522,142.334 75.083 C 142.242 75.323,142.101 75.479,142.019 75.429 C 141.938 75.378,141.778 75.449,141.665 75.585 C 141.416 75.886,141.100 75.917,141.265 75.625 C 141.358 75.460,141.337 75.459,141.161 75.622 C 140.813 75.945,141.088 76.052,141.726 75.841 C 142.254 75.667,142.667 75.068,142.667 74.475 C 142.667 74.268,142.372 74.302,142.234 74.526 M24.898 78.405 C 24.918 78.544,24.986 78.709,25.049 78.772 C 25.112 78.834,25.080 78.987,24.978 79.110 C 24.761 79.371,24.739 79.359,25.543 79.404 C 26.103 79.436,26.159 79.404,26.063 79.103 C 25.863 78.472,24.816 77.845,24.898 78.405 M66.262 79.929 C 66.118 80.073,66.005 80.316,66.011 80.470 C 66.020 80.688,66.061 80.671,66.196 80.393 C 66.291 80.196,66.529 79.957,66.726 79.862 C 67.004 79.728,67.021 79.687,66.804 79.678 C 66.650 79.672,66.406 79.785,66.262 79.929 M106.375 84.962 C 106.449 85.189,105.686 86.032,105.507 85.921 C 105.411 85.862,105.333 85.893,105.333 85.990 C 105.333 86.087,105.483 86.167,105.667 86.167 C 105.872 86.167,106.001 86.055,106.003 85.875 C 106.004 85.678,106.046 85.648,106.132 85.783 C 106.202 85.893,106.342 85.930,106.443 85.866 C 106.660 85.729,106.692 84.833,106.479 84.833 C 106.399 84.833,106.352 84.891,106.375 84.962 M104.780 85.943 C 104.720 86.003,104.388 86.107,104.044 86.173 L 103.417 86.295 104.208 86.314 C 104.809 86.329,105.000 86.273,105.000 86.083 C 105.000 85.810,104.947 85.776,104.780 85.943 M26.672 89.786 C 26.659 90.290,27.244 91.185,27.536 91.109 C 27.699 91.066,27.833 91.099,27.833 91.182 C 27.833 91.265,27.933 91.333,28.056 91.333 C 28.178 91.333,28.278 91.228,28.278 91.099 C 28.278 90.959,28.177 90.904,28.027 90.961 C 27.836 91.035,27.805 90.982,27.897 90.742 C 27.963 90.569,27.964 90.480,27.899 90.545 C 27.752 90.693,27.307 90.344,27.417 90.167 C 27.460 90.096,27.366 89.936,27.206 89.811 C 26.944 89.605,26.938 89.611,27.145 89.875 C 27.284 90.052,27.304 90.167,27.195 90.167 C 27.097 90.167,26.940 90.035,26.847 89.875 C 26.753 89.715,26.675 89.675,26.672 89.786 M71.333 89.901 C 71.333 90.257,72.181 91.088,72.675 91.217 C 72.956 91.291,73.002 91.253,72.907 91.030 C 72.841 90.876,72.783 90.590,72.777 90.393 C 72.769 90.121,72.675 90.047,72.379 90.079 C 72.166 90.103,71.913 90.001,71.816 89.853 C 71.669 89.625,71.657 89.635,71.738 89.917 C 71.833 90.245,71.830 90.245,71.584 89.926 C 71.353 89.628,71.333 89.626,71.333 89.901 M72.590 90.344 C 72.643 90.430,72.602 90.500,72.500 90.500 C 72.398 90.500,72.363 90.581,72.424 90.679 C 72.485 90.777,72.377 90.759,72.184 90.639 C 71.991 90.518,71.833 90.379,71.833 90.329 C 71.833 90.169,72.490 90.182,72.590 90.344 M27.503 90.587 C 27.619 90.727,27.666 90.890,27.607 90.948 C 27.548 91.007,27.500 90.964,27.500 90.851 C 27.500 90.739,27.413 90.701,27.308 90.766 C 27.194 90.836,27.160 90.812,27.225 90.707 C 27.286 90.609,27.241 90.490,27.126 90.444 C 26.996 90.391,26.988 90.355,27.105 90.346 C 27.208 90.339,27.387 90.448,27.503 90.587 M80.537 91.694 C 80.706 92.203,81.333 92.394,81.333 91.937 C 81.333 91.578,81.256 91.500,80.903 91.500 C 80.649 91.500,80.499 91.580,80.537 91.694 M100.000 92.737 C 100.000 93.059,100.113 93.151,100.625 93.246 C 100.969 93.311,101.362 93.450,101.500 93.557 C 101.718 93.725,101.720 93.712,101.521 93.458 C 101.395 93.298,101.192 93.167,101.069 93.167 C 100.946 93.167,100.770 93.025,100.677 92.853 C 100.406 92.346,100.000 92.276,100.000 92.737 M64.167 93.341 C 64.029 93.415,63.786 93.516,63.626 93.566 C 63.382 93.641,62.776 94.434,62.626 94.874 C 62.602 94.942,62.002 95.007,61.292 95.017 C 60.448 95.030,59.999 95.102,59.997 95.227 C 59.996 95.334,59.929 95.313,59.843 95.177 C 59.718 94.979,59.647 94.975,59.429 95.156 C 59.143 95.394,59.063 95.750,59.333 95.583 C 59.425 95.527,59.500 95.560,59.500 95.657 C 59.500 95.754,59.387 95.833,59.250 95.833 C 58.949 95.833,58.913 96.443,59.208 96.542 C 59.323 96.580,58.831 96.656,58.114 96.710 C 56.622 96.824,56.034 97.123,55.890 97.841 C 55.802 98.283,55.726 98.333,55.159 98.333 C 54.143 98.333,54.000 98.448,54.000 99.268 L 54.000 100.000 52.833 100.000 C 51.834 100.000,51.666 100.042,51.664 100.292 C 51.662 100.519,51.630 100.533,51.518 100.357 C 51.318 100.042,50.667 100.277,50.667 100.664 C 50.667 100.834,50.760 101.010,50.875 101.056 C 50.999 101.107,50.966 101.146,50.792 101.154 C 50.615 101.161,50.500 101.299,50.500 101.500 C 50.500 101.715,50.389 101.833,50.186 101.833 C 49.851 101.833,49.673 102.257,49.669 103.060 C 49.666 103.617,48.688 105.258,47.792 106.209 C 47.323 106.706,47.167 107.014,47.167 107.436 C 47.167 107.746,47.101 108.000,47.020 108.000 C 46.940 108.000,46.893 107.781,46.915 107.514 C 46.949 107.118,46.899 107.039,46.645 107.087 C 46.474 107.121,46.333 107.077,46.333 106.990 C 46.333 106.904,46.183 106.833,46.000 106.833 C 45.610 106.833,45.606 106.851,45.859 107.407 C 45.967 107.644,46.299 107.920,46.609 108.032 C 47.110 108.213,47.167 108.299,47.167 108.877 C 47.167 109.263,47.233 109.479,47.333 109.417 C 47.425 109.360,47.500 109.393,47.500 109.490 C 47.500 109.587,47.416 109.667,47.313 109.667 C 47.189 109.667,47.201 109.758,47.349 109.935 C 47.488 110.103,47.594 110.134,47.633 110.018 C 47.667 109.917,47.768 109.833,47.857 109.833 C 47.946 109.833,47.973 109.908,47.917 110.000 C 47.857 110.097,48.026 110.167,48.323 110.167 C 48.799 110.167,48.834 110.208,48.845 110.792 C 48.858 111.472,49.027 112.032,49.215 112.012 C 49.280 112.006,49.596 112.000,49.917 112.000 L 50.500 112.000 50.500 113.480 C 50.500 114.908,50.662 115.399,51.107 115.319 C 51.901 115.177,52.167 115.340,52.167 115.967 C 52.167 116.783,52.402 117.000,53.283 117.000 L 54.000 117.000 54.020 117.958 C 54.031 118.485,54.027 119.010,54.012 119.125 C 53.998 119.240,54.082 119.334,54.201 119.336 C 54.365 119.338,54.361 119.374,54.184 119.486 C 54.054 119.568,53.997 119.753,54.055 119.904 C 54.201 120.283,54.671 120.428,54.848 120.149 C 54.966 119.963,54.995 119.975,54.997 120.208 C 54.999 120.406,54.871 120.500,54.601 120.500 C 54.046 120.500,54.000 120.719,54.000 123.347 L 54.000 125.667 53.260 125.667 C 52.178 125.667,52.215 125.564,52.188 128.667 C 52.167 130.978,52.163 131.000,51.787 131.000 C 51.010 131.000,50.667 131.437,50.667 132.426 C 50.667 134.170,50.914 134.226,58.177 134.130 C 63.821 134.056,63.767 134.065,63.952 133.143 C 64.024 132.780,64.140 132.487,64.208 132.492 C 64.277 132.496,64.708 132.500,65.167 132.500 L 66.000 132.500 66.000 133.231 C 66.000 134.111,66.115 134.161,68.129 134.164 C 69.457 134.167,69.514 134.183,69.671 134.596 C 69.900 135.198,70.180 135.438,70.843 135.600 C 71.664 135.801,71.548 135.793,73.934 135.814 L 76.118 135.833 76.223 136.957 C 76.343 138.238,76.721 138.889,77.391 138.969 C 77.742 139.011,77.836 139.114,77.847 139.469 C 77.892 140.902,77.923 140.934,79.283 140.986 C 79.598 140.998,79.655 141.108,79.699 141.792 C 79.730 142.272,79.832 142.592,79.958 142.604 C 80.073 142.616,80.456 142.634,80.810 142.646 C 81.403 142.665,81.447 142.700,81.374 143.083 C 81.321 143.363,81.370 143.501,81.522 143.503 C 81.700 143.505,81.695 143.540,81.500 143.663 C 81.282 143.801,81.288 143.859,81.548 144.119 C 81.808 144.379,81.865 144.385,82.003 144.167 C 82.108 144.001,82.162 143.987,82.164 144.125 C 82.166 144.240,82.246 144.333,82.343 144.333 C 82.440 144.333,82.466 144.247,82.401 144.141 C 82.319 144.009,82.356 143.995,82.516 144.095 C 82.949 144.365,84.113 144.349,84.345 144.069 C 84.524 143.853,84.520 143.782,84.323 143.657 C 84.126 143.532,84.135 143.505,84.375 143.503 C 84.712 143.500,84.780 142.907,84.458 142.777 C 84.344 142.731,84.629 142.687,85.092 142.680 C 86.096 142.664,86.333 142.468,86.333 141.657 C 86.333 141.077,86.367 141.040,87.024 140.899 C 87.814 140.729,88.238 140.256,87.833 139.998 C 87.656 139.885,87.646 139.838,87.799 139.836 C 87.918 139.834,88.002 139.740,87.988 139.625 C 87.973 139.510,87.969 138.985,87.980 138.458 L 88.000 137.500 91.500 137.500 L 95.000 137.500 95.007 139.125 C 95.020 141.880,95.237 142.492,96.208 142.497 C 96.637 142.500,96.667 142.547,96.667 143.217 C 96.667 144.098,96.884 144.333,97.700 144.333 C 98.328 144.333,98.507 144.671,98.347 145.559 C 98.290 145.878,98.701 146.113,99.359 146.139 C 100.203 146.172,100.140 146.109,100.190 146.963 C 100.213 147.350,100.311 147.678,100.408 147.692 C 100.504 147.706,100.658 147.735,100.750 147.756 C 100.842 147.777,101.160 147.804,101.458 147.814 C 101.920 147.830,102.000 147.895,102.000 148.250 L 102.000 148.667 105.247 148.667 L 108.495 148.667 108.539 143.958 L 108.583 139.250 109.125 139.280 C 109.423 139.297,109.667 139.240,109.667 139.155 C 109.667 139.070,109.760 139.019,109.875 139.042 C 109.990 139.065,110.065 138.990,110.042 138.875 C 110.019 138.760,110.063 138.667,110.140 138.667 C 110.217 138.667,110.296 137.675,110.316 136.463 C 110.335 135.251,110.366 134.246,110.384 134.229 C 110.402 134.212,110.679 134.176,111.000 134.150 C 111.895 134.075,111.954 133.964,111.987 132.294 C 112.023 130.541,111.976 130.679,112.555 130.631 C 112.800 130.611,113.000 130.535,113.000 130.464 C 113.000 130.392,113.079 130.333,113.177 130.333 C 113.274 130.333,113.299 130.420,113.234 130.526 C 113.158 130.649,113.189 130.673,113.319 130.592 C 113.431 130.523,113.482 130.361,113.433 130.233 C 113.384 130.105,113.410 130.000,113.492 130.000 C 113.658 130.000,113.725 126.347,113.567 125.933 C 113.403 125.507,106.339 125.532,106.320 125.958 C 106.312 126.133,106.273 126.166,106.223 126.042 C 106.098 125.733,105.834 125.789,105.831 126.125 C 105.829 126.370,105.803 126.377,105.673 126.171 C 105.541 125.963,105.500 125.972,105.401 126.230 C 105.330 126.417,105.374 126.590,105.517 126.681 C 105.704 126.799,105.692 126.829,105.458 126.831 C 105.298 126.832,105.167 126.946,105.167 127.083 C 105.167 127.294,104.796 127.333,102.833 127.333 C 101.302 127.333,100.500 127.394,100.500 127.510 C 100.500 127.607,100.425 127.640,100.333 127.583 C 100.231 127.520,100.167 127.804,100.167 128.323 L 100.167 129.167 99.250 129.167 L 98.333 129.167 98.333 126.917 C 98.333 125.589,98.399 124.667,98.494 124.667 C 98.582 124.667,98.805 124.504,98.990 124.306 L 99.326 123.945 98.838 123.479 L 98.350 123.013 98.323 119.548 C 98.291 115.565,98.274 115.500,97.244 115.500 L 96.500 115.500 96.500 114.608 L 96.500 113.716 97.875 113.612 C 99.558 113.484,99.833 113.247,99.833 111.924 C 99.833 110.932,99.513 110.500,98.779 110.500 L 98.333 110.500 98.333 108.167 C 98.333 106.883,98.352 105.809,98.375 105.780 C 98.476 105.650,97.819 105.156,97.668 105.249 C 97.576 105.306,97.500 105.280,97.500 105.191 C 97.500 105.101,97.275 104.816,97.000 104.556 C 96.540 104.123,96.500 103.993,96.500 102.959 L 96.500 101.833 95.667 101.833 L 94.833 101.833 94.833 101.180 C 94.833 100.017,94.808 100.000,93.066 100.000 L 91.500 100.000 91.500 99.268 C 91.500 98.334,91.499 98.333,88.653 98.333 L 86.333 98.333 86.314 97.875 C 86.281 97.076,86.255 96.992,86.000 96.830 C 85.862 96.743,84.352 96.671,82.643 96.669 L 79.536 96.667 79.408 96.208 C 79.337 95.956,79.292 95.669,79.307 95.570 C 79.359 95.238,78.503 94.893,78.325 95.174 C 78.213 95.352,78.171 95.359,78.169 95.201 C 78.168 95.082,78.073 94.998,77.958 95.012 C 77.844 95.027,76.155 95.031,74.205 95.020 L 70.660 95.000 70.466 94.574 C 69.920 93.378,65.645 92.541,64.167 93.341 M35.399 98.597 C 35.454 98.742,35.500 98.931,35.500 99.016 C 35.500 99.172,36.475 99.832,36.708 99.833 C 36.777 99.833,36.833 99.716,36.833 99.572 C 36.833 99.378,36.737 99.341,36.458 99.428 L 36.083 99.544 36.473 99.225 L 36.863 98.906 36.309 98.864 C 36.005 98.841,35.685 98.751,35.598 98.665 C 35.500 98.567,35.578 98.534,35.808 98.579 C 36.013 98.618,36.132 98.579,36.078 98.491 C 35.903 98.208,35.286 98.304,35.399 98.597 M45.667 98.688 C 45.667 98.768,45.723 98.825,45.792 98.815 C 46.116 98.769,46.652 99.057,46.557 99.227 C 46.489 99.349,46.529 99.345,46.668 99.215 C 46.836 99.060,46.841 98.960,46.690 98.778 C 46.477 98.522,45.667 98.450,45.667 98.688 M46.500 107.355 C 46.500 107.236,46.585 107.200,46.700 107.271 C 46.856 107.367,46.855 107.409,46.699 107.461 C 46.588 107.498,46.547 107.609,46.608 107.707 C 46.673 107.812,46.640 107.836,46.527 107.766 C 46.421 107.701,46.256 107.484,46.158 107.282 C 45.988 106.929,45.991 106.928,46.241 107.240 C 46.387 107.422,46.500 107.473,46.500 107.355 " stroke="none" fill="#a0680a" fill-rule="evenodd"></path><path id="path1" d="M26.667 1.837 C 26.667 2.646,26.310 3.069,25.703 2.978 C 25.388 2.931,25.167 3.018,25.167 3.187 C 25.167 3.304,25.248 3.320,25.383 3.229 C 25.502 3.149,25.459 3.212,25.287 3.370 C 25.092 3.549,25.012 3.777,25.075 3.973 C 25.161 4.245,25.068 4.301,24.406 4.376 C 23.466 4.482,23.332 4.606,23.215 5.480 C 23.124 6.161,22.688 6.354,21.625 6.186 C 21.556 6.176,21.500 6.538,21.500 6.991 L 21.500 7.815 20.708 7.866 L 19.917 7.917 19.867 8.867 C 19.825 9.662,19.773 9.800,19.548 9.713 C 19.376 9.647,19.320 9.677,19.392 9.793 C 19.490 9.951,19.260 10.222,19.000 10.256 C 18.469 10.324,18.165 10.548,18.365 10.723 C 18.488 10.830,18.559 10.901,18.524 10.883 C 18.280 10.754,18.000 11.434,18.000 12.155 L 18.000 13.000 17.268 13.000 C 16.459 13.000,16.333 13.147,16.333 14.097 L 16.333 14.667 15.519 14.667 L 14.705 14.667 14.636 15.761 C 14.566 16.850,14.299 17.317,13.922 17.005 C 13.820 16.920,13.584 16.997,13.342 17.193 C 13.008 17.463,12.978 17.550,13.174 17.671 C 13.365 17.789,13.372 17.862,13.207 18.026 C 13.093 18.140,13.000 18.593,13.000 19.033 C 13.000 19.715,12.951 19.836,12.667 19.854 C 12.126 19.888,12.096 19.900,11.598 20.292 C 11.336 20.498,11.205 20.667,11.307 20.667 C 11.436 20.667,11.443 20.794,11.329 21.094 C 11.240 21.329,11.167 21.937,11.167 22.446 C 11.167 23.321,11.147 23.365,10.790 23.275 C 10.423 23.183,9.957 23.348,9.986 23.560 C 9.994 23.619,9.952 23.660,9.894 23.652 C 9.647 23.619,9.576 24.089,9.527 26.112 C 9.498 27.287,9.459 28.263,9.441 28.281 C 9.423 28.299,9.061 28.332,8.636 28.354 L 7.864 28.394 7.842 30.899 C 7.816 33.737,7.873 33.487,7.239 33.539 C 6.112 33.632,6.165 33.119,6.176 43.834 C 6.186 53.290,6.193 53.500,6.510 53.500 C 6.688 53.500,6.833 53.570,6.833 53.656 C 6.833 53.742,7.040 53.799,7.292 53.781 L 7.750 53.750 7.796 56.322 C 7.840 58.788,7.975 59.471,8.369 59.228 C 8.467 59.168,8.461 59.261,8.356 59.458 C 8.203 59.743,8.230 59.786,8.548 59.769 C 8.827 59.755,8.905 59.831,8.868 60.083 C 8.829 60.352,8.852 60.369,8.984 60.171 C 9.288 59.718,9.416 60.184,9.500 62.055 L 9.583 63.917 10.369 63.967 L 11.156 64.018 11.203 65.801 C 11.250 67.578,11.251 67.583,11.667 67.583 C 11.965 67.583,12.076 67.668,12.059 67.881 C 12.042 68.089,12.093 68.130,12.228 68.018 C 12.369 67.901,12.414 68.013,12.394 68.428 C 12.380 68.742,12.430 68.960,12.507 68.912 C 12.584 68.865,12.616 68.659,12.579 68.455 C 12.518 68.115,12.531 68.108,12.732 68.374 C 12.854 68.535,12.965 69.164,12.982 69.790 C 12.999 70.410,13.080 70.940,13.163 70.969 C 13.247 70.998,13.269 71.141,13.212 71.288 C 13.138 71.481,13.176 71.520,13.347 71.432 C 13.477 71.364,13.447 71.420,13.280 71.556 C 12.989 71.794,12.991 71.808,13.322 71.913 C 13.511 71.973,13.672 72.149,13.678 72.303 C 13.689 72.565,13.698 72.565,13.803 72.304 C 14.031 71.743,14.565 72.412,14.662 73.379 L 14.750 74.250 15.542 74.301 L 16.333 74.352 16.359 75.634 C 16.373 76.340,16.402 76.992,16.423 77.083 C 16.444 77.175,16.470 77.348,16.481 77.468 C 16.491 77.588,16.575 77.640,16.667 77.583 C 16.758 77.527,16.833 77.560,16.833 77.657 C 16.833 77.754,16.890 77.824,16.958 77.814 C 17.755 77.688,18.000 77.842,18.000 78.467 C 18.000 79.283,18.235 79.500,19.117 79.500 L 19.833 79.500 19.836 80.708 C 19.838 82.177,19.963 82.717,20.272 82.598 C 20.397 82.550,20.500 82.583,20.500 82.672 C 20.500 82.761,20.556 82.824,20.625 82.814 C 21.346 82.700,21.483 82.834,21.533 83.708 L 21.583 84.583 22.366 84.634 L 23.149 84.684 23.200 85.467 L 23.250 86.250 24.033 86.300 L 24.816 86.351 24.866 87.134 L 24.917 87.917 25.792 87.967 L 26.667 88.017 26.667 88.770 C 26.667 89.567,26.893 90.167,27.193 90.167 C 27.305 90.167,27.287 90.056,27.145 89.875 C 26.937 89.610,26.943 89.604,27.212 89.815 C 27.375 89.943,27.469 90.086,27.422 90.133 C 27.289 90.267,27.686 90.674,27.850 90.573 C 27.931 90.523,27.952 90.598,27.898 90.739 C 27.816 90.952,27.748 90.932,27.495 90.623 C 27.244 90.315,27.152 90.288,26.970 90.468 C 26.788 90.648,26.808 90.665,27.083 90.562 C 27.391 90.447,27.398 90.462,27.167 90.760 C 26.938 91.056,26.940 91.065,27.194 90.866 C 27.432 90.681,27.488 90.699,27.581 90.992 C 27.677 91.297,27.717 91.307,27.940 91.084 C 28.078 90.946,28.235 90.833,28.290 90.833 C 28.344 90.833,28.339 90.884,28.277 90.945 C 28.216 91.006,28.276 91.226,28.412 91.433 C 28.599 91.718,28.609 91.828,28.454 91.892 C 28.317 91.947,28.307 92.020,28.422 92.112 C 28.517 92.188,28.594 92.400,28.593 92.583 C 28.592 92.814,28.692 92.908,28.918 92.887 C 29.098 92.871,29.302 92.946,29.373 93.054 C 29.467 93.200,29.538 93.191,29.649 93.019 C 29.853 92.703,30.224 93.389,30.086 93.826 C 30.031 93.998,30.066 94.188,30.163 94.247 C 30.259 94.307,30.298 94.422,30.248 94.503 C 30.198 94.583,30.310 94.620,30.496 94.584 C 30.681 94.548,30.833 94.583,30.833 94.661 C 30.833 94.738,30.978 94.764,31.154 94.718 C 31.388 94.657,31.547 94.774,31.742 95.151 C 31.933 95.521,31.951 95.667,31.806 95.667 C 31.694 95.667,31.741 95.768,31.910 95.891 C 32.079 96.015,32.175 96.186,32.122 96.271 C 32.069 96.356,32.328 96.437,32.697 96.452 C 33.507 96.484,33.544 96.516,33.574 97.207 C 33.602 97.858,33.791 98.213,34.030 98.065 C 34.126 98.006,34.271 98.061,34.352 98.187 C 34.464 98.361,34.531 98.368,34.629 98.217 C 34.715 98.086,34.842 98.071,35.004 98.173 C 35.139 98.258,35.414 98.329,35.615 98.331 C 35.816 98.332,36.024 98.404,36.078 98.491 C 36.132 98.578,36.025 98.620,35.841 98.585 C 35.657 98.549,35.473 98.575,35.432 98.642 C 35.367 98.747,35.818 98.836,36.625 98.878 C 36.922 98.894,36.888 98.957,36.416 99.266 C 36.155 99.437,35.917 99.485,35.783 99.395 C 35.665 99.315,35.711 99.381,35.886 99.542 C 36.061 99.702,36.289 99.832,36.393 99.831 C 36.511 99.829,36.498 99.774,36.361 99.687 C 36.184 99.575,36.195 99.525,36.416 99.440 C 36.814 99.287,36.833 99.298,36.833 99.667 C 36.833 99.955,36.944 100.000,37.658 100.000 L 38.482 100.000 38.533 100.792 L 38.583 101.583 39.458 101.634 L 40.333 101.684 40.333 102.509 L 40.333 103.333 41.167 103.333 L 42.000 103.333 42.000 103.986 C 42.000 105.026,42.112 105.167,42.934 105.167 C 43.579 105.167,43.668 105.212,43.679 105.542 C 43.718 106.678,43.824 106.766,45.212 106.816 C 45.779 106.837,46.282 106.913,46.330 106.987 C 46.378 107.060,46.538 107.101,46.686 107.078 C 46.890 107.046,46.946 107.154,46.915 107.518 C 46.893 107.783,46.940 108.000,47.020 108.000 C 47.101 108.000,47.167 107.746,47.167 107.436 C 47.167 107.014,47.323 106.706,47.792 106.209 C 48.825 105.112,49.609 103.688,49.719 102.708 L 49.818 101.833 49.242 101.833 C 48.694 101.833,48.667 101.806,48.667 101.239 C 48.667 100.340,48.445 100.058,47.718 100.031 C 47.370 100.018,47.060 99.931,47.029 99.837 C 46.998 99.743,46.847 99.661,46.694 99.654 C 46.521 99.645,46.495 99.609,46.625 99.556 C 46.962 99.420,46.865 99.170,46.407 98.996 C 46.129 98.891,46.024 98.761,46.105 98.625 C 46.191 98.483,46.141 98.489,45.949 98.645 C 45.705 98.843,45.667 98.836,45.667 98.596 C 45.667 98.444,45.573 98.331,45.458 98.346 C 45.344 98.361,44.898 98.364,44.467 98.353 L 43.685 98.333 43.634 97.542 L 43.583 96.750 42.708 96.700 L 41.833 96.649 41.833 95.825 L 41.833 95.000 41.000 95.000 L 40.167 95.000 40.167 94.347 C 40.167 93.308,40.055 93.167,39.232 93.167 C 38.469 93.167,38.440 93.126,38.449 92.079 C 38.451 91.861,38.145 91.588,37.875 91.567 C 37.760 91.557,37.479 91.539,37.250 91.525 C 36.881 91.503,36.833 91.425,36.833 90.854 C 36.833 90.250,36.554 89.788,36.226 89.847 C 35.292 90.015,35.019 89.840,34.967 89.042 L 34.917 88.250 34.125 88.199 C 33.326 88.148,33.152 87.875,33.319 86.941 C 33.378 86.612,32.916 86.333,32.313 86.333 C 31.729 86.333,31.351 85.680,31.708 85.288 C 31.764 85.227,31.274 84.698,31.167 84.702 C 29.952 84.757,29.854 84.698,29.801 83.875 L 29.750 83.083 28.958 83.033 L 28.167 82.982 28.167 82.158 L 28.167 81.333 27.342 81.333 L 26.517 81.333 26.467 80.375 L 26.417 79.417 25.708 79.396 C 24.767 79.368,24.764 79.367,24.978 79.110 C 25.080 78.987,25.111 78.833,25.046 78.768 C 24.981 78.704,24.914 78.486,24.896 78.284 C 24.776 76.901,24.735 76.667,24.615 76.667 C 24.541 76.667,24.527 76.592,24.583 76.500 C 24.640 76.408,24.588 76.322,24.468 76.309 C 24.348 76.295,24.137 76.269,24.000 76.250 C 23.863 76.231,23.581 76.205,23.375 76.191 C 23.039 76.169,23.000 76.079,23.000 75.333 L 23.000 74.500 22.167 74.500 L 21.333 74.500 21.319 73.458 C 21.312 72.885,21.274 72.229,21.235 72.000 C 21.195 71.771,21.152 71.502,21.137 71.403 C 21.123 71.303,21.014 71.222,20.896 71.222 C 20.778 71.222,20.721 71.303,20.770 71.403 C 20.818 71.502,20.753 71.456,20.625 71.300 C 20.479 71.123,20.259 71.051,20.038 71.108 C 19.715 71.193,19.681 71.125,19.634 70.309 L 19.583 69.417 18.792 69.366 L 18.000 69.315 18.000 67.774 C 18.000 66.001,17.904 65.833,16.889 65.833 L 16.179 65.833 16.131 64.208 L 16.083 62.583 15.292 62.533 L 14.500 62.482 14.480 60.366 C 14.469 59.202,14.469 58.194,14.480 58.125 C 14.491 58.056,14.425 58.000,14.333 58.000 C 14.242 58.000,14.167 57.883,14.167 57.740 C 14.167 57.597,14.092 57.527,14.000 57.583 C 13.908 57.640,13.833 57.614,13.833 57.525 C 13.833 57.437,13.702 57.396,13.542 57.434 C 12.916 57.584,12.853 57.325,12.817 54.454 C 12.797 52.916,12.713 51.667,12.629 51.667 C 12.546 51.667,12.528 51.507,12.590 51.312 C 12.665 51.076,12.642 50.996,12.520 51.071 C 12.401 51.144,12.376 51.083,12.448 50.896 C 12.531 50.678,12.492 50.634,12.284 50.714 C 11.960 50.838,11.741 50.577,12.023 50.402 C 12.153 50.322,12.173 50.355,12.083 50.500 C 11.993 50.645,12.014 50.678,12.144 50.598 C 12.459 50.403,12.225 50.227,11.698 50.263 L 11.209 50.297 11.178 43.216 C 11.157 38.272,11.201 36.168,11.324 36.244 C 11.421 36.304,11.509 36.274,11.521 36.177 C 11.532 36.079,11.551 35.925,11.563 35.833 C 11.574 35.742,11.658 35.685,11.750 35.708 C 11.842 35.731,11.894 35.819,11.866 35.903 C 11.838 35.987,11.931 35.960,12.074 35.841 C 12.356 35.607,12.429 35.421,12.178 35.576 C 12.093 35.629,11.974 35.592,11.913 35.495 C 11.837 35.371,11.733 35.376,11.570 35.511 C 11.442 35.617,11.378 35.771,11.428 35.852 C 11.479 35.933,11.440 36.000,11.343 36.000 C 10.943 36.000,11.316 35.467,11.984 35.083 C 12.140 34.993,12.179 35.012,12.100 35.139 C 12.024 35.262,12.074 35.294,12.241 35.230 C 12.573 35.103,12.567 35.008,12.208 34.714 C 12.048 34.583,12.010 34.523,12.125 34.581 C 12.240 34.639,12.334 34.588,12.336 34.468 C 12.338 34.310,12.383 34.318,12.500 34.500 C 12.727 34.851,12.722 34.414,12.494 33.989 C 12.359 33.736,12.376 33.667,12.576 33.667 C 12.716 33.667,12.818 33.536,12.805 33.375 C 12.792 33.215,12.792 31.977,12.807 30.625 L 12.833 28.167 13.667 28.167 L 14.500 28.167 14.500 26.509 L 14.500 24.852 15.292 24.801 L 16.083 24.750 16.131 23.050 L 16.178 21.350 17.047 21.300 L 17.917 21.250 17.964 20.500 C 18.030 19.449,18.133 19.185,18.355 19.505 C 18.501 19.714,18.539 19.716,18.619 19.513 C 18.671 19.383,18.930 19.064,19.196 18.805 C 19.461 18.546,19.602 18.333,19.510 18.333 C 19.398 18.333,19.396 18.190,19.504 17.906 C 19.594 17.671,19.667 17.183,19.667 16.822 C 19.667 16.174,19.674 16.167,20.300 16.167 C 21.098 16.167,21.333 15.932,21.333 15.133 L 21.333 14.500 22.167 14.500 L 23.000 14.500 23.000 13.564 C 23.000 12.638,23.005 12.629,23.448 12.713 C 23.959 12.811,24.372 12.698,24.246 12.494 C 24.199 12.418,24.331 12.231,24.539 12.077 C 24.763 11.912,24.839 11.769,24.726 11.725 C 24.541 11.653,24.661 11.039,24.997 10.333 C 25.063 10.196,25.098 9.960,25.075 9.809 C 25.050 9.636,25.136 9.550,25.309 9.577 C 25.460 9.600,25.647 9.536,25.724 9.435 C 25.808 9.325,25.824 9.385,25.765 9.583 C 25.667 9.912,25.670 9.912,25.916 9.593 C 26.097 9.360,26.167 9.337,26.169 9.510 C 26.171 9.712,26.197 9.711,26.333 9.500 C 26.422 9.362,26.496 8.898,26.497 8.467 L 26.500 7.685 27.292 7.634 L 28.083 7.583 28.134 6.794 C 28.189 5.939,28.858 5.658,28.917 6.465 C 28.931 6.659,28.886 6.783,28.816 6.740 C 28.747 6.696,28.635 6.749,28.569 6.856 C 28.498 6.971,28.520 7.007,28.622 6.944 C 28.838 6.811,29.209 7.230,29.040 7.417 C 28.972 7.492,29.012 7.499,29.128 7.432 C 29.244 7.365,29.304 7.253,29.260 7.184 C 29.154 7.011,29.794 7.068,29.955 7.246 C 30.026 7.323,29.971 7.326,29.833 7.252 C 29.626 7.141,29.620 7.157,29.800 7.351 C 30.063 7.633,29.972 7.620,31.917 7.646 C 33.489 7.667,33.500 7.670,33.500 8.083 C 33.500 8.313,33.584 8.500,33.687 8.500 C 33.824 8.500,33.824 8.561,33.685 8.728 C 33.422 9.044,33.846 9.421,34.137 9.129 C 34.288 8.979,34.333 8.980,34.333 9.133 C 34.333 9.278,34.907 9.333,36.417 9.333 L 38.500 9.333 38.520 9.792 C 38.531 10.044,38.531 10.306,38.520 10.375 C 38.443 10.861,39.170 11.123,40.682 11.154 C 41.540 11.171,42.281 11.247,42.329 11.322 C 42.704 11.907,43.116 12.333,43.307 12.333 C 43.433 12.333,43.292 12.106,42.995 11.828 C 42.697 11.551,42.499 11.279,42.553 11.224 C 42.710 11.068,43.636 12.021,43.743 12.448 C 43.836 12.818,43.904 12.833,45.503 12.833 C 47.253 12.833,47.319 12.868,47.186 13.708 C 47.176 13.777,47.242 13.833,47.333 13.833 C 47.425 13.833,47.481 13.927,47.458 14.042 C 47.435 14.156,47.510 14.231,47.625 14.208 C 47.740 14.185,47.833 14.242,47.833 14.333 C 47.833 14.432,48.460 14.501,49.375 14.503 C 50.446 14.504,50.840 14.555,50.667 14.669 C 50.444 14.815,50.444 14.852,50.667 14.997 C 50.804 15.088,50.842 15.167,50.750 15.175 C 50.658 15.182,50.761 15.259,50.977 15.346 C 51.255 15.457,51.347 15.598,51.288 15.823 C 51.230 16.046,51.274 16.115,51.435 16.053 C 51.561 16.005,51.622 15.879,51.570 15.774 C 51.518 15.669,51.583 15.715,51.714 15.875 C 51.916 16.121,52.244 16.167,53.810 16.167 L 55.667 16.167 55.667 16.820 C 55.667 17.983,55.692 18.000,57.434 18.000 L 59.000 18.000 59.000 18.500 C 59.000 18.775,58.981 19.024,58.958 19.054 C 58.699 19.387,59.623 19.667,60.988 19.667 L 62.500 19.667 62.500 20.167 C 62.500 21.277,62.594 21.333,64.437 21.333 L 66.000 21.333 66.000 22.167 L 66.000 23.000 67.667 23.000 L 69.333 23.000 69.333 23.679 C 69.333 24.766,69.454 24.833,71.408 24.833 L 72.815 24.833 72.866 25.625 L 72.917 26.417 73.783 26.467 C 74.459 26.506,74.629 26.570,74.557 26.758 C 74.506 26.891,74.551 27.000,74.657 27.000 C 74.792 27.000,74.801 27.088,74.687 27.292 C 74.448 27.718,74.926 28.218,75.354 27.989 C 75.570 27.873,75.667 27.877,75.667 28.001 C 75.667 28.100,75.760 28.169,75.875 28.154 C 76.563 28.065,78.006 28.189,77.919 28.330 C 77.863 28.420,77.899 28.645,77.998 28.830 C 78.131 29.079,78.127 29.167,77.983 29.167 C 77.876 29.167,77.979 29.317,78.212 29.500 C 78.556 29.771,78.888 29.833,79.976 29.833 L 81.316 29.833 81.366 30.708 L 81.417 31.583 82.563 31.633 C 83.779 31.686,84.544 32.151,84.692 32.927 C 84.741 33.189,84.917 33.259,85.618 33.300 L 86.482 33.350 86.533 34.133 L 86.583 34.917 88.199 34.964 L 89.816 35.012 89.866 35.798 L 89.917 36.583 90.750 36.667 C 91.538 36.745,91.582 36.775,91.552 37.208 C 91.535 37.460,91.583 37.667,91.658 37.667 C 91.734 37.667,91.786 37.798,91.773 37.958 C 91.759 38.141,91.859 38.241,92.042 38.227 C 92.202 38.214,92.333 38.266,92.333 38.342 C 92.333 38.417,92.502 38.470,92.708 38.459 C 92.915 38.448,93.510 38.453,94.033 38.469 L 94.982 38.500 95.033 39.292 L 95.083 40.083 95.875 40.134 C 96.554 40.178,96.670 40.237,96.692 40.551 C 96.706 40.752,96.735 40.992,96.756 41.083 C 96.777 41.175,96.812 41.325,96.834 41.417 C 96.855 41.508,96.864 41.640,96.853 41.708 C 96.842 41.777,96.890 41.824,96.958 41.814 C 97.027 41.803,97.777 41.803,98.625 41.814 L 100.167 41.833 100.167 42.667 L 100.167 43.500 101.000 43.500 L 101.833 43.500 101.833 44.179 C 101.833 44.766,102.128 45.358,102.411 45.339 C 103.347 45.277,103.694 45.354,103.598 45.605 C 103.537 45.764,103.615 45.975,103.789 46.117 C 103.951 46.250,103.996 46.315,103.890 46.262 C 103.720 46.177,103.709 46.267,103.821 46.812 C 103.828 46.846,103.945 46.782,104.081 46.668 C 104.282 46.501,104.349 46.514,104.434 46.736 C 104.503 46.914,104.649 46.975,104.853 46.910 C 105.026 46.856,105.167 46.887,105.167 46.980 C 105.167 47.072,104.810 47.171,104.375 47.199 L 103.583 47.250 103.534 48.194 C 103.500 48.846,103.407 49.167,103.233 49.233 C 103.096 49.286,103.024 49.263,103.074 49.182 C 103.213 48.957,102.636 48.797,102.430 49.004 C 102.300 49.136,102.331 49.155,102.542 49.075 C 102.711 49.011,102.833 49.042,102.833 49.149 C 102.833 49.250,102.721 49.333,102.583 49.333 C 102.446 49.333,102.333 49.446,102.333 49.583 C 102.333 49.721,102.258 49.833,102.167 49.833 C 102.075 49.833,102.000 49.913,102.000 50.010 C 102.000 50.107,102.094 50.139,102.208 50.081 C 102.323 50.023,102.285 50.083,102.125 50.214 C 101.917 50.385,101.833 50.696,101.833 51.301 L 101.833 52.148 101.042 52.199 L 100.250 52.250 100.200 53.117 L 100.150 53.983 99.283 54.033 L 98.417 54.083 98.366 54.866 L 98.316 55.649 97.533 55.700 L 96.750 55.750 96.700 56.533 L 96.649 57.316 95.866 57.366 L 95.083 57.417 95.033 58.208 L 94.982 59.000 94.033 59.003 C 93.510 59.004,92.973 59.075,92.838 59.160 C 92.703 59.246,92.553 59.263,92.504 59.200 C 92.456 59.136,92.215 59.290,91.969 59.542 C 91.723 59.794,91.590 60.000,91.674 60.000 C 92.370 60.000,91.352 60.823,90.602 60.867 L 89.750 60.917 89.761 61.537 C 89.769 61.989,89.720 62.113,89.579 61.997 C 89.473 61.908,89.337 61.886,89.276 61.946 C 89.216 62.006,89.167 61.960,89.167 61.843 C 89.167 61.727,89.267 61.669,89.389 61.716 C 89.511 61.763,89.611 61.700,89.611 61.576 C 89.611 61.412,89.531 61.394,89.315 61.510 C 88.748 61.813,88.783 62.113,89.375 62.020 C 89.444 62.009,89.500 62.075,89.500 62.167 C 89.500 62.258,89.313 62.343,89.083 62.354 C 88.854 62.366,88.592 62.394,88.500 62.417 C 88.408 62.440,87.921 62.468,87.417 62.479 C 86.783 62.494,86.500 62.567,86.500 62.718 C 86.500 62.838,86.390 63.082,86.256 63.260 C 86.020 63.574,86.015 63.572,86.079 63.212 C 86.116 63.008,86.091 62.806,86.024 62.765 C 85.957 62.724,85.885 62.923,85.863 63.209 C 85.802 64.012,85.626 64.103,84.046 64.153 C 82.680 64.196,81.863 64.260,81.667 64.339 C 81.621 64.358,81.527 64.364,81.458 64.353 C 81.390 64.342,81.342 64.390,81.353 64.458 C 81.513 65.469,81.330 65.833,80.667 65.833 C 80.001 65.833,79.777 65.621,80.250 65.440 C 80.387 65.387,80.503 65.435,80.507 65.547 C 80.511 65.659,80.667 65.462,80.853 65.110 C 81.038 64.757,81.150 64.364,81.100 64.235 C 81.027 64.044,81.285 64.000,82.480 64.000 C 83.968 64.000,84.554 63.781,84.600 63.208 C 84.609 63.094,84.628 62.850,84.642 62.667 C 84.663 62.377,84.786 62.333,85.573 62.333 C 86.072 62.333,86.532 62.250,86.594 62.149 C 86.674 62.020,86.752 62.033,86.852 62.191 C 86.972 62.380,86.995 62.380,86.997 62.188 C 87.000 62.002,87.047 61.999,87.254 62.170 C 87.394 62.286,87.556 62.333,87.615 62.274 C 87.674 62.215,87.632 62.167,87.521 62.167 C 87.371 62.167,87.374 62.108,87.535 61.935 C 87.691 61.767,87.784 61.756,87.872 61.893 C 87.949 62.012,87.996 62.018,87.997 61.908 C 87.999 61.812,87.910 61.643,87.800 61.533 C 87.644 61.378,87.654 61.333,87.842 61.331 C 88.041 61.329,88.044 61.303,87.857 61.185 C 87.700 61.085,87.687 61.007,87.816 60.928 C 87.941 60.850,88.000 59.695,88.000 57.323 L 88.000 53.833 90.208 53.807 C 91.423 53.792,92.548 53.792,92.708 53.805 C 92.869 53.818,93.000 53.751,93.000 53.655 C 93.000 53.559,93.065 53.521,93.145 53.570 C 93.224 53.619,93.289 53.530,93.288 53.371 C 93.287 52.749,93.339 52.500,93.472 52.500 C 93.549 52.500,93.611 52.612,93.611 52.750 C 93.611 52.887,93.536 53.000,93.444 53.000 C 93.353 53.000,93.320 53.043,93.373 53.095 C 93.486 53.209,94.167 52.807,94.167 52.627 C 94.167 52.557,94.082 52.519,93.979 52.542 C 93.876 52.565,93.763 52.506,93.727 52.411 C 93.692 52.315,93.906 52.232,94.206 52.225 C 98.746 52.114,98.317 52.387,98.306 49.616 C 98.295 46.925,98.917 47.167,92.011 47.167 L 86.333 47.167 86.314 46.625 C 86.303 46.327,86.305 46.019,86.319 45.941 C 86.374 45.635,85.976 45.386,85.395 45.365 C 84.624 45.336,84.691 45.478,84.653 43.787 C 84.636 42.988,84.552 42.333,84.468 42.333 C 84.383 42.333,84.360 42.258,84.417 42.167 C 84.480 42.064,84.196 42.000,83.677 42.000 L 82.833 42.000 82.833 41.163 L 82.833 40.326 79.542 40.371 L 76.250 40.417 76.199 41.208 L 76.148 42.000 71.908 42.000 L 67.667 42.000 67.667 42.833 L 67.667 43.667 66.934 43.667 C 65.980 43.667,66.000 43.585,66.000 47.430 C 66.000 49.907,65.951 50.667,65.792 50.669 C 65.636 50.671,65.639 50.707,65.806 50.813 C 65.986 50.927,65.981 50.972,65.777 51.050 C 65.520 51.149,65.497 51.430,65.717 51.783 C 65.802 51.919,65.736 51.962,65.508 51.918 C 65.324 51.883,65.137 51.914,65.091 51.987 C 65.046 52.061,64.353 52.136,63.552 52.153 C 62.750 52.171,61.999 52.265,61.881 52.363 C 61.727 52.491,61.667 52.485,61.667 52.342 C 61.667 52.215,61.571 52.238,61.403 52.406 C 61.258 52.551,61.081 52.633,61.009 52.589 C 60.936 52.544,60.878 52.637,60.878 52.795 C 60.879 52.954,60.869 53.287,60.856 53.536 L 60.833 53.988 59.125 54.036 L 57.417 54.083 57.366 54.869 L 57.316 55.655 55.699 55.702 L 54.083 55.750 54.055 57.792 C 54.037 59.113,54.088 59.833,54.201 59.833 C 54.306 59.833,54.292 59.932,54.167 60.083 C 54.053 60.221,54.006 60.343,54.063 60.354 C 54.120 60.366,54.223 60.386,54.292 60.398 C 54.360 60.411,54.492 60.469,54.583 60.526 C 54.847 60.692,60.326 60.647,60.430 60.479 C 60.481 60.396,60.583 60.365,60.656 60.410 C 60.729 60.455,60.789 60.363,60.788 60.205 C 60.787 59.582,60.839 59.333,60.972 59.333 C 61.049 59.333,61.111 59.446,61.111 59.583 C 61.111 59.721,61.036 59.833,60.944 59.833 C 60.853 59.833,60.817 59.873,60.865 59.921 C 61.020 60.075,61.504 59.804,61.688 59.460 C 61.817 59.219,61.816 59.158,61.683 59.240 C 61.582 59.302,61.500 59.279,61.500 59.190 C 61.500 59.090,62.643 59.019,64.441 59.008 C 66.059 58.998,67.446 58.950,67.524 58.902 C 67.603 58.853,67.667 59.418,67.667 60.157 C 67.667 61.039,67.731 61.500,67.854 61.500 C 67.991 61.500,67.991 61.561,67.852 61.728 C 67.589 62.044,68.013 62.421,68.304 62.129 C 68.454 61.979,68.500 61.980,68.500 62.133 C 68.500 62.243,68.688 62.333,68.917 62.333 C 69.325 62.333,69.334 62.361,69.354 63.667 C 69.366 64.400,69.394 65.075,69.417 65.167 C 69.440 65.258,69.468 65.413,69.479 65.510 C 69.491 65.607,69.575 65.640,69.667 65.583 C 69.758 65.527,69.833 65.544,69.833 65.621 C 69.833 65.699,70.073 65.781,70.366 65.803 C 71.012 65.852,70.956 65.793,71.024 66.500 C 71.114 67.432,71.218 67.473,73.476 67.475 C 76.015 67.476,76.000 67.482,76.000 66.566 C 76.000 65.840,76.005 65.833,76.583 65.833 C 76.904 65.833,77.167 65.916,77.167 66.018 C 77.167 66.119,77.054 66.159,76.917 66.106 C 76.779 66.054,76.667 66.088,76.667 66.182 C 76.667 66.276,76.604 66.314,76.528 66.267 C 76.381 66.176,76.318 66.458,76.319 67.208 C 76.320 67.657,76.298 67.667,75.336 67.667 C 74.796 67.667,74.302 67.750,74.239 67.851 C 74.157 67.983,74.089 67.978,74.000 67.834 C 73.903 67.677,73.793 67.676,73.501 67.833 C 73.194 67.997,73.151 67.993,73.262 67.808 C 73.362 67.641,73.320 67.646,73.097 67.827 C 72.916 67.974,72.871 68.096,72.983 68.133 C 73.085 68.167,73.112 68.282,73.043 68.389 C 72.973 68.496,72.917 68.733,72.917 68.917 C 72.917 69.178,72.791 69.260,72.333 69.295 C 71.067 69.393,71.000 69.441,71.000 70.253 C 71.000 71.004,70.777 71.164,69.941 71.014 C 69.526 70.939,69.373 71.416,69.347 72.872 C 69.314 74.671,69.420 74.470,68.469 74.533 L 67.697 74.583 67.675 77.069 C 67.653 79.533,67.581 80.068,67.328 79.657 C 67.226 79.493,67.136 79.507,66.920 79.723 C 66.768 79.875,66.585 80.000,66.515 80.000 C 66.122 80.000,66.020 81.057,66.006 85.235 L 65.991 89.667 68.717 89.667 C 71.391 89.667,71.448 89.674,71.649 90.050 C 71.761 90.260,72.007 90.528,72.194 90.645 C 72.382 90.762,72.485 90.777,72.424 90.679 C 72.363 90.581,72.398 90.500,72.500 90.500 C 72.602 90.500,72.637 90.420,72.576 90.322 C 72.516 90.224,72.371 90.181,72.253 90.226 C 72.018 90.316,71.664 90.032,71.672 89.758 C 71.675 89.662,71.748 89.704,71.834 89.853 C 71.924 90.007,72.162 90.103,72.389 90.078 C 72.667 90.048,72.785 90.117,72.780 90.309 C 72.765 90.890,73.039 91.490,73.308 91.469 C 73.460 91.457,75.327 91.459,77.458 91.474 L 81.333 91.500 81.345 91.958 C 81.357 92.408,81.629 93.245,81.658 92.917 C 81.665 92.825,81.744 92.862,81.833 93.000 C 81.947 93.176,81.996 93.186,81.997 93.036 C 81.999 92.876,82.082 92.865,82.322 92.994 C 82.507 93.093,83.821 93.167,85.406 93.167 C 88.374 93.167,88.327 93.152,88.186 94.042 C 88.176 94.110,88.242 94.167,88.333 94.167 C 88.425 94.167,88.500 94.284,88.500 94.427 C 88.500 94.569,88.575 94.640,88.667 94.583 C 88.758 94.527,88.833 94.547,88.833 94.628 C 88.833 94.710,88.965 94.776,89.125 94.775 C 89.285 94.774,90.298 94.787,91.375 94.804 L 93.333 94.833 93.333 95.667 L 93.333 96.500 94.991 96.500 L 96.649 96.500 96.700 97.375 L 96.750 98.250 99.167 98.250 L 101.583 98.250 101.613 95.796 C 101.629 94.446,101.592 93.354,101.530 93.369 C 101.468 93.384,101.098 93.338,100.708 93.267 L 100.000 93.137 100.000 89.694 L 100.001 86.250 102.125 86.244 C 103.502 86.240,104.382 86.165,104.625 86.030 C 104.941 85.854,105.000 85.862,105.000 86.077 C 105.000 86.218,105.075 86.333,105.167 86.333 C 105.258 86.333,105.333 86.216,105.333 86.073 C 105.333 85.931,105.411 85.862,105.507 85.921 C 105.602 85.980,105.833 85.833,106.020 85.596 C 106.214 85.349,106.444 85.214,106.555 85.280 C 106.680 85.356,106.674 85.304,106.537 85.135 C 106.207 84.727,106.671 84.678,111.051 84.661 C 115.466 84.643,115.333 84.681,115.333 83.428 L 115.333 82.833 117.843 82.833 C 119.474 82.833,120.317 82.775,120.250 82.667 C 120.193 82.575,120.212 82.500,120.290 82.500 C 120.369 82.500,120.442 82.232,120.451 81.905 C 120.472 81.141,120.368 81.191,122.004 81.153 C 123.527 81.118,123.883 81.049,123.739 80.816 C 123.688 80.734,123.718 80.667,123.805 80.667 C 123.892 80.667,123.959 80.573,123.955 80.458 C 123.923 79.588,123.981 79.519,124.792 79.467 L 125.583 79.417 125.634 78.634 L 125.684 77.851 126.467 77.800 L 127.250 77.750 127.300 76.875 L 127.351 76.000 128.175 76.000 L 129.000 76.000 129.000 75.167 C 129.000 74.375,129.023 74.332,129.458 74.308 C 129.710 74.294,129.992 74.265,130.083 74.244 C 130.175 74.223,130.348 74.196,130.468 74.186 C 130.588 74.175,130.640 74.092,130.583 74.000 C 130.527 73.908,130.546 73.833,130.626 73.833 C 130.706 73.833,130.791 73.103,130.815 72.210 C 130.855 70.681,130.954 70.161,131.117 70.615 C 131.164 70.747,131.320 70.698,131.588 70.465 C 131.808 70.273,131.937 70.034,131.874 69.933 C 131.647 69.570,131.705 69.360,132.017 69.420 C 132.191 69.453,132.333 69.410,132.333 69.324 C 132.333 69.237,132.408 69.167,132.500 69.167 C 132.592 69.167,132.667 69.452,132.667 69.800 C 132.667 70.148,132.757 70.523,132.867 70.633 C 132.977 70.743,133.352 70.833,133.700 70.833 C 134.310 70.833,134.333 70.854,134.333 71.403 C 134.333 72.099,134.484 72.530,134.684 72.406 C 134.766 72.355,134.833 72.374,134.834 72.448 C 134.834 72.523,135.072 72.600,135.363 72.621 C 135.927 72.660,136.207 72.926,136.114 73.333 C 136.055 73.587,136.732 74.379,136.880 74.231 C 137.138 73.973,137.854 74.397,137.764 74.754 C 137.698 75.017,137.756 75.165,137.955 75.242 C 138.168 75.323,138.188 75.384,138.032 75.480 C 137.657 75.712,138.521 75.952,139.747 75.955 C 140.621 75.958,140.966 75.891,141.134 75.688 C 141.257 75.539,141.315 75.503,141.263 75.608 C 141.211 75.713,141.287 75.844,141.431 75.899 C 141.805 76.043,141.955 76.019,141.700 75.858 C 141.530 75.750,141.546 75.670,141.774 75.485 C 141.934 75.356,142.011 75.339,141.946 75.447 C 141.881 75.555,141.906 75.692,142.001 75.751 C 142.097 75.810,142.165 75.796,142.153 75.721 C 142.106 75.433,142.378 74.841,142.517 74.927 C 142.597 74.977,142.618 74.901,142.564 74.760 C 142.510 74.618,142.379 74.545,142.274 74.597 C 142.169 74.649,142.229 74.573,142.407 74.429 C 142.585 74.285,142.791 74.167,142.865 74.167 C 142.939 74.167,142.991 74.110,142.980 74.042 C 142.916 73.632,143.035 73.444,143.167 73.750 C 143.295 74.048,143.311 74.051,143.322 73.782 C 143.328 73.616,143.410 73.528,143.504 73.586 C 143.598 73.644,143.664 73.630,143.651 73.554 C 143.595 73.233,143.679 73.000,143.851 73.000 C 143.953 73.000,143.994 73.109,143.943 73.242 C 143.881 73.403,143.930 73.452,144.092 73.390 C 144.366 73.285,144.420 73.000,144.167 73.000 C 144.075 73.000,144.000 72.925,144.000 72.833 C 144.000 72.742,144.116 72.667,144.259 72.667 C 144.482 72.667,144.513 72.353,144.485 70.417 C 144.467 69.179,144.388 68.167,144.310 68.167 C 144.231 68.167,144.185 68.078,144.208 67.969 C 144.235 67.843,143.944 67.746,143.417 67.703 C 142.958 67.665,142.528 67.548,142.461 67.442 C 142.369 67.298,142.338 67.299,142.336 67.445 C 142.326 68.224,141.115 67.474,141.048 66.648 C 141.019 66.275,140.902 65.877,140.789 65.763 C 140.676 65.648,140.434 65.355,140.252 65.111 C 140.070 64.867,139.835 64.667,139.731 64.667 C 139.626 64.667,139.447 64.554,139.333 64.417 C 139.207 64.265,138.842 64.167,138.405 64.167 L 137.685 64.167 137.634 63.375 L 137.583 62.583 136.708 62.533 L 135.833 62.483 135.833 61.658 L 135.833 60.833 135.009 60.833 L 134.184 60.833 134.134 59.958 L 134.083 59.083 133.300 59.033 L 132.518 58.982 132.467 58.200 L 132.417 57.417 131.634 57.366 L 130.851 57.316 130.800 56.533 L 130.750 55.750 129.875 55.700 L 129.000 55.649 129.000 54.747 C 129.000 54.030,128.951 53.863,128.760 53.936 C 128.628 53.986,128.384 53.941,128.218 53.835 C 127.971 53.676,127.967 53.657,128.196 53.728 C 128.350 53.775,128.575 53.687,128.696 53.532 C 128.898 53.273,128.890 53.271,128.594 53.500 C 128.302 53.726,128.281 53.723,128.376 53.471 C 128.498 53.144,128.092 52.716,127.922 52.992 C 127.813 53.167,127.938 53.235,128.250 53.173 C 128.342 53.154,128.358 53.197,128.287 53.269 C 128.110 53.446,127.645 53.504,127.748 53.336 C 127.794 53.262,127.736 53.165,127.619 53.120 C 127.497 53.073,127.390 52.697,127.367 52.228 C 127.290 50.691,127.229 50.584,126.401 50.528 C 125.590 50.473,125.454 50.375,125.567 49.923 C 125.618 49.718,125.606 49.495,125.539 49.428 C 125.472 49.360,125.417 49.218,125.417 49.111 C 125.417 48.882,125.518 48.891,122.653 48.859 L 120.390 48.833 120.410 48.238 C 120.421 47.911,120.369 47.605,120.295 47.560 C 120.222 47.514,120.198 47.417,120.244 47.344 C 120.289 47.271,120.196 47.211,120.038 47.212 C 118.848 47.215,118.833 47.206,118.833 46.488 C 118.833 45.679,118.614 45.431,117.833 45.357 C 117.124 45.290,117.184 45.351,117.142 44.658 C 117.089 43.776,116.965 43.710,115.295 43.680 C 113.528 43.648,113.639 43.698,113.617 42.928 C 113.608 42.601,113.536 42.333,113.457 42.333 C 113.378 42.333,113.351 42.272,113.398 42.197 C 113.478 42.068,112.792 41.986,111.182 41.932 C 110.462 41.909,109.971 41.405,110.668 41.405 C 110.856 41.405,110.933 41.497,110.882 41.661 C 110.811 41.886,110.823 41.887,110.982 41.667 C 111.131 41.460,111.162 41.457,111.164 41.653 C 111.166 41.783,111.206 41.850,111.254 41.802 C 111.403 41.652,111.176 41.253,110.813 41.026 C 110.622 40.906,110.515 40.889,110.576 40.988 C 110.637 41.086,110.602 41.167,110.499 41.167 C 110.397 41.167,110.336 40.998,110.365 40.792 C 110.413 40.445,110.345 40.413,109.458 40.367 L 108.500 40.317 108.500 39.482 C 108.500 38.968,108.436 38.687,108.333 38.750 C 108.242 38.807,108.167 38.788,108.167 38.709 C 108.167 38.630,107.848 38.546,107.458 38.524 C 106.835 38.487,106.094 38.167,106.633 38.167 C 106.970 38.167,106.855 37.863,106.473 37.741 C 106.151 37.639,106.142 37.610,106.393 37.470 C 106.735 37.279,106.610 37.013,106.208 37.075 C 106.048 37.099,105.860 37.036,105.792 36.935 C 105.704 36.805,105.624 36.817,105.521 36.976 C 105.419 37.134,105.341 37.146,105.261 37.018 C 105.198 36.916,104.781 36.833,104.333 36.833 L 103.518 36.833 103.467 36.042 L 103.417 35.250 102.555 35.200 C 101.844 35.159,100.841 34.667,101.468 34.667 C 102.128 34.667,101.450 33.588,100.777 33.568 C 100.487 33.560,99.819 33.541,99.292 33.526 L 98.333 33.500 98.333 32.770 C 98.333 32.142,97.966 31.451,97.724 31.625 C 97.693 31.648,97.029 31.667,96.250 31.667 L 94.833 31.667 94.833 30.833 L 94.833 30.000 93.945 30.000 L 93.057 30.000 93.076 29.405 C 93.087 29.077,93.036 28.772,92.962 28.727 C 92.888 28.681,92.872 28.572,92.926 28.484 C 92.980 28.397,92.963 28.336,92.887 28.349 C 92.812 28.362,92.056 28.364,91.208 28.353 L 89.667 28.333 89.667 27.500 L 89.667 26.667 88.000 26.667 L 86.333 26.667 86.333 26.014 C 86.333 24.974,86.222 24.833,85.399 24.833 C 84.996 24.833,84.667 24.758,84.667 24.667 C 84.667 24.575,84.550 24.500,84.407 24.500 C 84.264 24.500,84.190 24.430,84.244 24.344 C 84.297 24.258,84.208 24.104,84.045 24.002 C 83.794 23.845,83.812 23.832,84.167 23.917 C 84.521 24.001,84.539 23.988,84.288 23.831 C 84.123 23.727,84.045 23.559,84.112 23.448 C 84.177 23.339,84.089 23.363,83.917 23.500 C 83.734 23.646,83.655 23.663,83.728 23.542 C 83.797 23.427,83.780 23.333,83.690 23.333 C 83.601 23.333,83.490 23.427,83.444 23.542 C 83.393 23.666,83.354 23.633,83.346 23.458 C 83.331 23.122,83.068 23.067,82.944 23.375 C 82.876 23.542,82.857 23.542,82.846 23.375 C 82.838 23.238,82.549 23.167,82.000 23.167 C 81.228 23.167,81.165 23.136,81.146 22.750 C 81.082 21.468,81.245 21.589,79.500 21.527 C 78.629 21.496,77.905 21.458,77.890 21.443 C 77.876 21.429,77.839 21.154,77.807 20.833 C 77.724 19.981,77.448 19.845,75.792 19.839 L 74.333 19.833 74.333 19.239 C 74.333 18.149,74.184 18.046,72.554 18.014 C 70.861 17.981,71.019 18.050,70.976 17.325 C 70.922 16.443,70.799 16.377,69.128 16.347 C 67.359 16.314,67.524 16.382,67.430 15.655 C 67.389 15.340,67.342 15.046,67.325 15.000 C 67.308 14.954,67.299 14.870,67.306 14.813 C 67.313 14.757,66.628 14.698,65.784 14.682 C 64.224 14.654,63.463 14.342,64.042 13.968 C 64.176 13.881,64.190 13.789,64.083 13.708 C 63.992 13.640,63.917 13.471,63.917 13.333 C 63.917 13.133,63.608 13.073,62.352 13.030 C 60.789 12.977,60.270 12.788,60.372 12.308 C 60.397 12.193,60.317 12.095,60.195 12.091 C 60.073 12.087,59.872 11.945,59.748 11.775 C 59.624 11.605,59.442 11.516,59.344 11.576 C 59.244 11.639,59.166 11.556,59.164 11.385 C 59.162 11.129,59.137 11.121,59.000 11.333 C 58.892 11.500,58.838 11.514,58.836 11.375 C 58.834 11.222,58.388 11.167,57.167 11.167 L 55.500 11.167 55.500 10.434 C 55.500 9.533,55.428 9.500,53.467 9.500 C 52.043 9.500,51.966 9.482,52.048 9.167 C 52.096 8.983,52.063 8.833,51.975 8.833 C 51.886 8.833,51.847 8.777,51.887 8.708 C 52.071 8.397,51.667 7.792,51.415 8.001 C 51.270 8.121,51.167 8.137,51.167 8.038 C 51.167 7.933,50.385 7.859,49.132 7.844 C 46.761 7.815,47.029 7.920,46.965 6.995 L 46.914 6.250 45.134 6.167 L 43.355 6.083 42.969 5.513 C 42.757 5.199,42.471 4.907,42.333 4.863 C 42.196 4.820,42.290 4.993,42.542 5.248 C 42.794 5.503,43.000 5.820,43.000 5.951 C 43.000 6.087,42.746 5.921,42.414 5.570 C 42.092 5.228,41.864 4.914,41.907 4.871 C 42.225 4.553,41.383 4.333,39.845 4.333 C 38.324 4.333,37.812 4.193,38.375 3.931 C 38.534 3.856,38.527 3.808,38.347 3.727 C 38.216 3.668,37.907 3.412,37.659 3.158 C 37.410 2.905,37.105 2.702,36.979 2.708 C 36.853 2.714,35.981 2.707,35.042 2.693 L 33.333 2.667 33.333 2.097 C 33.333 0.957,33.467 1.000,29.899 1.000 L 26.667 1.000 26.667 1.837 M13.715 17.333 C 13.631 17.653,13.333 17.809,13.333 17.533 C 13.333 17.417,13.673 17.000,13.768 17.000 C 13.787 17.000,13.763 17.150,13.715 17.333 M19.025 19.158 C 19.062 19.268,19.146 19.353,19.212 19.346 C 19.412 19.325,19.373 19.097,19.158 19.025 C 19.048 18.988,18.988 19.048,19.025 19.158 M83.500 31.990 C 83.500 32.226,84.151 32.868,84.324 32.802 C 84.398 32.773,84.244 32.539,83.980 32.281 C 83.716 32.023,83.500 31.892,83.500 31.990 M11.546 49.833 C 11.521 50.158,11.677 50.268,11.877 50.067 C 11.997 49.947,11.845 49.500,11.684 49.500 C 11.622 49.500,11.560 49.650,11.546 49.833 M115.525 57.625 C 115.556 58.840,115.633 59.833,115.698 59.833 C 115.762 59.833,115.785 59.985,115.749 60.171 C 115.713 60.357,115.750 60.468,115.831 60.418 C 115.911 60.369,116.023 60.402,116.078 60.492 C 116.134 60.582,116.402 60.611,116.673 60.557 L 117.167 60.458 117.169 61.354 C 117.171 61.847,117.242 62.361,117.327 62.496 C 117.425 62.650,117.421 62.779,117.319 62.842 C 117.229 62.898,117.203 63.068,117.262 63.221 C 117.320 63.373,117.454 63.447,117.559 63.384 C 117.664 63.321,117.638 63.411,117.500 63.583 C 117.354 63.766,117.337 63.845,117.458 63.772 C 117.582 63.698,117.672 63.736,117.680 63.865 C 117.690 64.042,117.710 64.042,117.779 63.868 C 117.842 63.711,117.925 63.702,118.082 63.832 C 118.201 63.931,118.400 63.990,118.524 63.964 C 118.701 63.927,118.760 64.319,118.797 65.792 L 118.844 67.667 118.005 67.667 L 117.167 67.667 117.167 68.500 L 117.167 69.333 115.764 69.333 C 113.914 69.333,113.833 69.373,113.833 70.268 L 113.833 71.000 111.125 71.024 C 107.015 71.060,107.100 71.043,107.060 71.806 C 107.046 72.050,107.028 72.344,107.018 72.458 C 107.004 72.616,106.338 72.667,104.292 72.667 L 101.583 72.667 101.640 71.750 L 101.698 70.833 103.145 70.833 C 104.613 70.833,105.051 70.656,105.100 70.042 C 105.109 69.927,105.128 69.683,105.142 69.500 C 105.162 69.228,105.286 69.167,105.813 69.167 C 106.398 69.167,106.781 68.960,106.819 68.625 C 106.827 68.556,106.833 68.279,106.833 68.009 C 106.833 67.542,106.871 67.516,107.625 67.467 L 108.417 67.417 108.467 66.625 L 108.518 65.833 109.226 65.833 C 110.117 65.833,110.333 65.615,110.333 64.717 C 110.333 63.998,110.672 63.817,111.708 63.980 C 111.777 63.991,111.842 63.869,111.853 63.708 C 111.863 63.548,111.889 63.342,111.911 63.250 C 111.932 63.158,111.961 62.544,111.975 61.884 L 112.000 60.685 112.792 60.634 L 113.583 60.583 113.633 59.815 C 113.680 59.091,114.500 58.196,114.500 58.869 C 114.500 58.976,114.601 58.925,114.725 58.756 C 114.848 58.587,115.025 58.496,115.118 58.553 C 115.213 58.612,115.289 58.495,115.290 58.287 C 115.318 54.689,115.443 54.339,115.525 57.625 M140.346 65.524 C 140.437 65.694,140.465 65.833,140.408 65.833 C 140.253 65.833,139.333 64.939,139.333 64.788 C 139.333 64.581,140.164 65.184,140.346 65.524 M164.390 66.025 C 164.009 66.110,163.634 66.308,163.557 66.465 C 163.327 66.931,163.288 104.661,163.516 104.936 C 163.775 105.248,171.323 105.277,171.633 104.967 C 171.903 104.697,171.924 68.271,171.655 67.020 C 171.479 66.196,171.471 66.188,170.647 66.011 C 169.649 65.797,165.362 65.806,164.390 66.025 M177.551 66.000 C 176.982 66.232,176.986 66.092,177.036 86.167 L 177.083 105.083 181.063 105.128 C 183.858 105.159,185.110 105.116,185.271 104.983 C 185.459 104.826,185.500 103.442,185.500 97.230 L 185.500 89.667 191.504 89.667 L 197.507 89.667 197.462 86.375 L 197.417 83.083 191.458 83.040 L 185.500 82.996 185.500 78.672 L 185.500 74.348 192.153 74.299 C 195.812 74.272,198.868 74.187,198.945 74.111 C 199.189 73.866,199.116 66.383,198.867 66.133 C 198.607 65.874,178.173 65.746,177.551 66.000 M203.000 65.996 C 202.780 66.135,202.750 68.499,202.750 85.619 L 202.750 105.083 206.042 105.129 L 209.333 105.174 209.333 85.605 C 209.333 67.914,209.308 66.026,209.070 65.934 C 208.640 65.770,203.272 65.824,203.000 65.996 M222.532 65.998 C 221.876 66.153,221.513 66.581,221.505 67.208 L 221.500 67.667 219.943 67.667 C 218.252 67.667,218.000 67.827,218.000 68.906 C 218.000 69.239,217.893 69.312,217.256 69.407 C 216.555 69.512,216.506 69.554,216.409 70.134 C 216.248 71.108,216.206 71.167,215.676 71.167 C 214.684 71.167,214.657 71.338,214.706 77.349 L 214.750 82.750 215.533 82.800 L 216.317 82.851 216.367 83.717 L 216.417 84.583 217.200 84.634 L 217.982 84.684 218.033 85.467 L 218.083 86.250 218.958 86.300 L 219.833 86.351 219.833 87.074 C 219.833 87.959,219.918 88.000,221.754 88.000 L 223.148 88.000 223.199 88.792 L 223.250 89.583 224.950 89.631 L 226.650 89.678 226.700 90.547 L 226.750 91.417 227.625 91.467 L 228.500 91.517 228.500 92.096 C 228.500 92.702,228.692 92.857,229.708 93.075 C 230.095 93.158,230.167 93.258,230.167 93.720 C 230.167 94.412,230.422 94.667,231.117 94.667 L 231.667 94.667 231.667 95.648 L 231.667 96.629 230.934 96.739 C 230.175 96.853,230.008 97.071,230.002 97.958 C 230.000 98.313,229.934 98.333,228.761 98.333 C 226.998 98.333,226.667 98.491,226.667 99.329 L 226.667 100.000 225.750 100.000 L 224.833 100.000 224.833 99.429 C 224.833 98.425,224.596 98.333,221.988 98.333 L 219.667 98.333 219.667 97.700 C 219.667 96.717,219.535 96.667,216.967 96.667 L 214.667 96.667 214.667 100.816 C 214.667 105.607,214.465 105.167,216.659 105.167 L 218.124 105.167 218.228 105.815 C 218.376 106.745,218.309 106.735,225.019 106.798 C 231.815 106.862,231.667 106.885,231.667 105.744 L 231.667 105.179 233.292 105.131 L 234.917 105.083 234.967 104.208 L 235.017 103.333 235.925 103.333 L 236.833 103.333 236.833 102.509 L 236.833 101.685 237.625 101.634 L 238.417 101.583 238.464 99.958 L 238.512 98.333 239.139 98.333 C 240.110 98.333,240.167 98.190,240.167 95.750 C 240.167 93.308,240.110 93.167,239.133 93.167 L 238.500 93.167 238.500 91.091 C 238.500 88.544,238.368 88.167,237.473 88.167 C 236.853 88.167,236.833 88.149,236.833 87.583 C 236.833 87.222,236.706 86.873,236.500 86.667 C 236.294 86.460,235.944 86.333,235.583 86.333 C 235.079 86.333,235.000 86.279,235.000 85.935 C 235.000 85.122,234.537 84.835,233.042 84.721 L 231.667 84.617 231.667 84.009 C 231.667 83.103,231.467 83.000,229.717 83.000 L 228.167 83.000 228.167 82.167 L 228.167 81.333 226.509 81.333 L 224.851 81.333 224.800 80.458 L 224.750 79.583 223.875 79.533 L 223.000 79.483 223.000 76.930 L 223.000 74.377 225.247 74.301 C 227.742 74.216,228.167 74.047,228.167 73.141 C 228.167 72.677,228.187 72.667,229.083 72.667 L 230.000 72.667 230.000 73.313 C 230.000 74.258,230.164 74.318,232.845 74.370 L 235.250 74.417 235.306 74.917 C 235.395 75.720,235.767 76.000,236.744 76.000 C 238.346 76.000,238.490 75.609,238.496 71.240 C 238.500 67.854,238.458 67.712,237.421 67.634 C 236.788 67.586,236.753 67.552,236.622 66.887 C 236.490 66.216,236.456 66.185,235.651 66.012 C 234.688 65.806,223.396 65.793,222.532 65.998 M244.000 65.996 C 243.780 66.135,243.750 68.499,243.750 85.619 L 243.750 105.083 247.083 105.083 L 250.417 105.083 250.460 97.375 L 250.503 89.667 258.252 89.667 L 266.000 89.667 266.000 97.417 L 266.000 105.167 269.903 105.167 C 272.050 105.167,273.925 105.121,274.070 105.066 C 274.445 104.921,274.466 66.939,274.091 66.444 C 273.658 65.872,267.672 65.523,266.428 65.996 L 266.000 66.158 266.000 74.579 L 266.000 83.000 258.250 83.000 L 250.500 83.000 250.500 74.617 C 250.500 68.319,250.450 66.184,250.300 66.033 C 250.055 65.788,244.382 65.755,244.000 65.996 M291.686 66.060 C 291.549 66.225,291.510 71.488,291.541 85.685 L 291.583 105.083 294.917 105.083 L 298.250 105.083 298.335 93.167 C 298.382 86.612,298.438 81.453,298.460 81.702 C 298.512 82.290,299.106 82.833,299.698 82.833 C 300.148 82.833,300.167 82.866,300.167 83.649 C 300.167 84.544,300.295 84.667,301.240 84.667 L 301.785 84.667 301.899 86.033 C 302.030 87.605,302.162 87.833,302.937 87.833 C 303.481 87.833,303.500 87.856,303.500 88.486 C 303.500 89.526,303.612 89.667,304.434 89.667 L 305.167 89.667 305.167 90.408 C 305.167 92.121,305.449 92.804,306.221 92.955 C 306.910 93.091,306.917 93.100,307.000 93.921 L 307.083 94.750 307.859 94.800 L 308.634 94.850 308.692 96.355 C 308.756 98.012,308.945 98.333,309.856 98.333 C 310.285 98.333,310.318 98.384,310.366 99.125 L 310.417 99.917 311.208 99.967 L 312.000 100.018 312.000 101.353 C 312.000 103.090,312.134 103.333,313.089 103.333 L 313.833 103.333 313.833 104.250 L 313.833 105.167 318.717 105.167 C 322.293 105.167,323.654 105.113,323.800 104.967 C 324.069 104.697,324.090 68.271,323.822 67.020 C 323.592 65.949,323.133 65.833,319.107 65.833 C 315.081 65.833,315.599 63.832,315.498 79.778 C 315.450 87.188,315.394 92.554,315.373 91.704 C 315.330 90.022,315.199 89.833,314.072 89.833 C 313.697 89.833,313.667 89.772,313.667 89.000 L 313.667 88.167 312.833 88.167 L 312.000 88.167 312.000 86.617 C 312.000 84.858,311.899 84.667,310.967 84.667 L 310.333 84.667 310.329 83.875 C 310.321 82.134,309.897 81.349,308.958 81.339 C 308.522 81.334,308.500 81.295,308.500 80.518 C 308.500 79.622,308.371 79.500,307.427 79.500 L 306.881 79.500 306.767 78.134 C 306.637 76.566,306.504 76.333,305.738 76.333 C 305.187 76.333,305.184 76.328,305.134 75.458 L 305.083 74.583 304.308 74.533 L 303.533 74.483 303.475 73.000 C 303.409 71.332,303.321 71.178,302.354 71.048 L 301.667 70.956 301.667 70.145 L 301.667 69.333 300.850 69.333 L 300.033 69.333 299.975 67.820 C 299.926 66.555,299.863 66.267,299.593 66.070 C 299.130 65.731,291.966 65.722,291.686 66.060 M341.375 65.944 C 341.248 65.995,341.167 66.348,341.167 66.847 L 341.167 67.667 338.746 67.667 L 336.325 67.667 336.163 68.094 C 336.073 68.329,336.000 68.704,336.000 68.928 C 336.000 69.303,335.939 69.333,335.167 69.333 L 334.333 69.333 334.333 70.167 L 334.333 71.000 333.500 71.000 L 332.667 71.000 332.667 71.825 L 332.667 72.649 331.792 72.700 L 330.917 72.750 330.866 73.625 L 330.816 74.500 330.092 74.500 C 329.207 74.500,329.167 74.584,329.167 76.430 L 329.167 77.833 328.597 77.833 C 327.409 77.833,327.500 77.064,327.500 87.068 C 327.500 96.941,327.453 96.500,328.513 96.500 L 329.127 96.500 329.196 98.077 C 329.275 99.881,329.249 99.831,330.153 99.953 C 330.809 100.041,330.833 100.066,330.833 100.655 C 330.833 101.447,331.074 101.667,331.941 101.667 L 332.648 101.667 332.699 102.458 L 332.750 103.250 333.542 103.301 C 334.276 103.348,334.334 103.384,334.339 103.801 C 334.351 104.859,335.105 105.156,337.792 105.163 L 339.500 105.167 339.500 105.897 C 339.500 106.871,339.190 106.828,346.363 106.831 C 353.142 106.834,353.000 106.857,353.000 105.751 L 353.000 105.192 355.325 105.138 C 357.898 105.078,357.981 105.045,358.117 104.028 C 358.208 103.355,358.214 103.350,358.979 103.300 L 359.750 103.250 359.750 94.000 L 359.750 84.750 352.167 84.750 L 344.583 84.750 344.583 88.083 L 344.583 91.417 347.958 91.462 L 351.333 91.507 351.333 94.920 L 351.333 98.333 350.042 98.336 C 348.122 98.339,348.000 98.395,348.000 99.269 L 348.000 100.000 346.250 100.000 L 344.500 100.000 344.500 99.367 C 344.500 98.435,344.309 98.333,342.550 98.333 L 341.000 98.333 341.000 97.859 C 341.000 97.101,340.549 96.840,339.041 96.723 L 337.698 96.620 337.641 95.151 C 337.576 93.499,337.487 93.345,336.520 93.215 L 335.833 93.123 335.833 91.579 C 335.833 89.879,335.805 89.833,334.732 89.833 L 334.158 89.833 334.204 87.215 L 334.250 84.597 334.801 84.484 C 335.715 84.297,335.822 84.000,335.828 81.625 L 335.833 79.500 336.550 79.500 C 337.432 79.500,337.667 79.283,337.667 78.467 C 337.667 77.864,337.693 77.833,338.208 77.831 C 338.995 77.827,339.193 77.634,339.290 76.771 L 339.377 76.000 340.188 76.000 L 341.000 76.000 341.000 75.190 L 341.000 74.381 343.249 74.295 C 345.743 74.200,346.000 74.100,346.000 73.230 L 346.000 72.667 347.000 72.667 L 348.000 72.667 348.000 73.337 C 348.000 74.235,348.297 74.333,351.011 74.333 L 353.167 74.333 353.167 74.804 C 353.167 75.803,353.693 76.017,356.016 75.964 L 358.083 75.917 358.128 71.792 L 358.172 67.667 356.420 67.667 L 354.667 67.667 354.667 66.923 C 354.667 66.357,354.589 66.137,354.344 66.006 C 354.018 65.831,341.799 65.773,341.375 65.944 M141.311 66.649 C 141.502 66.771,141.502 66.807,141.311 66.883 C 141.149 66.947,141.144 66.977,141.292 66.987 C 141.406 66.994,141.500 67.079,141.500 67.177 C 141.500 67.274,141.406 67.299,141.292 67.233 C 141.177 67.167,141.142 67.177,141.213 67.256 C 141.401 67.462,141.833 67.499,141.833 67.309 C 141.833 67.220,141.927 67.201,142.042 67.267 C 142.156 67.333,142.068 67.187,141.846 66.944 C 141.624 66.700,141.361 66.501,141.263 66.503 C 141.164 66.504,141.186 66.570,141.311 66.649 M278.449 98.450 C 277.946 98.580,277.833 99.239,277.833 102.061 C 277.833 105.100,277.857 105.167,278.941 105.167 L 279.648 105.167 279.699 105.958 L 279.750 106.750 281.833 106.798 C 284.611 106.862,284.667 106.845,284.667 105.923 L 284.667 105.185 285.458 105.134 L 286.250 105.083 286.295 101.938 C 286.327 99.760,286.282 98.723,286.150 98.563 C 285.963 98.338,279.260 98.240,278.449 98.450 M46.158 107.282 C 46.256 107.484,46.421 107.701,46.527 107.766 C 46.640 107.836,46.673 107.812,46.608 107.707 C 46.547 107.609,46.588 107.498,46.699 107.461 C 46.855 107.409,46.856 107.367,46.700 107.271 C 46.585 107.200,46.500 107.236,46.500 107.355 C 46.500 107.473,46.387 107.422,46.241 107.240 C 45.991 106.928,45.988 106.929,46.158 107.282 " stroke="none" fill="#5e6464" fill-rule="evenodd"></path></g></svg>